Interstate-Condensed.ufo
<glyph name="exclam" format="1">
  <advance width="248"/>
  <unicode hex="0021"/>
  <outline>
    <contour>
      <point x="173" y="352" type="line"/>
      <point x="157" y="202" type="line"/>
      <point x="91" y="202" type="line"/>
      <point x="75" y="352" type="line"/>
      <point x="75" y="700" type="line"/>
      <point x="173" y="700" type="line"/>
    </contour>
    <contour>
      <point x="192" y="57" type="curve" smooth="yes"/>
      <point x="192" y="19"/>
      <point x="162" y="-11"/>
      <point x="124" y="-11" type="curve" smooth="yes"/>
      <point x="86" y="-11"/>
      <point x="56" y="19"/>
      <point x="56" y="57" type="curve" smooth="yes"/>
      <point x="56" y="95"/>
      <point x="86" y="126"/>
      <point x="124" y="126" type="curve" smooth="yes"/>
      <point x="162" y="126"/>
      <point x="192" y="95"/>
    </contour>
  </outline>
</glyph>
<glyph name="quotedbl" format="1">
  <advance width="442"/>
  <unicode hex="0022"/>
  <outline>
    <contour>
      <point x="380" y="700" type="line"/>
      <point x="355" y="373" type="line"/>
      <point x="288" y="373" type="line"/>
      <point x="263" y="700" type="line"/>
    </contour>
    <contour>
      <point x="179" y="700" type="line"/>
      <point x="154" y="373" type="line"/>
      <point x="87" y="373" type="line"/>
      <point x="62" y="700" type="line"/>
    </contour>
  </outline>
</glyph>
<glyph name="numbersign" format="1">
  <advance width="600"/>
  <unicode hex="0023"/>
  <outline>
    <contour>
      <point x="555" y="160" type="line"/>
      <point x="460" y="160" type="line"/>
      <point x="460" y="0" type="line"/>
      <point x="367" y="0" type="line"/>
      <point x="367" y="160" type="line"/>
      <point x="233" y="160" type="line"/>
      <point x="233" y="0" type="line"/>
      <point x="140" y="0" type="line"/>
      <point x="140" y="160" type="line"/>
      <point x="45" y="160" type="line"/>
      <point x="45" y="250" type="line"/>
      <point x="140" y="250" type="line"/>
      <point x="140" y="450" type="line"/>
      <point x="45" y="450" type="line"/>
      <point x="45" y="540" type="line"/>
      <point x="140" y="540" type="line"/>
      <point x="140" y="700" type="line"/>
      <point x="233" y="700" type="line"/>
      <point x="233" y="540" type="line"/>
      <point x="367" y="540" type="line"/>
      <point x="367" y="700" type="line"/>
      <point x="460" y="700" type="line"/>
      <point x="460" y="540" type="line"/>
      <point x="555" y="540" type="line"/>
      <point x="555" y="450" type="line"/>
      <point x="460" y="450" type="line"/>
      <point x="460" y="250" type="line"/>
      <point x="555" y="250" type="line"/>
    </contour>
    <contour>
      <point x="367" y="250" type="line"/>
      <point x="367" y="450" type="line"/>
      <point x="233" y="450" type="line"/>
      <point x="233" y="250" type="line"/>
    </contour>
  </outline>
</glyph>
<glyph name="dollar" format="1">
  <advance width="443"/>
  <unicode hex="0024"/>
  <outline>
    <contour>
      <point x="403" y="186" type="curve" smooth="yes"/>
      <point x="403" y="91"/>
      <point x="355" y="22"/>
      <point x="264" y="4" type="curve"/>
      <point x="264" y="-80" type="line"/>
      <point x="166" y="-80" type="line"/>
      <point x="166" y="4" type="line"/>
      <point x="103" y="17"/>
      <point x="60" y="58"/>
      <point x="27" y="113" type="curve"/>
      <point x="104" y="175" type="line"/>
      <point x="142" y="115"/>
      <point x="175" y="94"/>
      <point x="218" y="94" type="curve" smooth="yes"/>
      <point x="271" y="94"/>
      <point x="302" y="124"/>
      <point x="302" y="181" type="curve" smooth="yes"/>
      <point x="302" y="235"/>
      <point x="279" y="261"/>
      <point x="185" y="323" type="curve" smooth="yes"/>
      <point x="106" y="375"/>
      <point x="44" y="421"/>
      <point x="44" y="531" type="curve" smooth="yes"/>
      <point x="44" y="615"/>
      <point x="90" y="675"/>
      <point x="166" y="694" type="curve"/>
      <point x="166" y="780" type="line"/>
      <point x="264" y="780" type="line"/>
      <point x="264" y="697" type="line"/>
      <point x="320" y="687"/>
      <point x="357" y="655"/>
      <point x="391" y="606" type="curve"/>
      <point x="319" y="542" type="line"/>
      <point x="285" y="587"/>
      <point x="262" y="606"/>
      <point x="218" y="606" type="curve" smooth="yes"/>
      <point x="171" y="606"/>
      <point x="145" y="578"/>
      <point x="145" y="534" type="curve" smooth="yes"/>
      <point x="145" y="482"/>
      <point x="169" y="458"/>
      <point x="247" y="408" type="curve" smooth="yes"/>
      <point x="334" y="352"/>
      <point x="403" y="303"/>
    </contour>
  </outline>
</glyph>
<glyph name="ampersand" format="1">
  <advance width="480"/>
  <unicode hex="0026"/>
  <outline>
    <contour>
      <point x="471" y="0" type="line"/>
      <point x="370" y="0" type="line"/>
      <point x="335" y="59" type="line"/>
      <point x="299" y="12"/>
      <point x="255" y="-11"/>
      <point x="194" y="-11" type="curve" smooth="yes"/>
      <point x="83" y="-11"/>
      <point x="32" y="60"/>
      <point x="32" y="162" type="curve" smooth="yes"/>
      <point x="32" y="244"/>
      <point x="73" y="319"/>
      <point x="146" y="378" type="curve"/>
      <point x="129" y="408" type="line" smooth="yes"/>
      <point x="93" y="471"/>
      <point x="70" y="512"/>
      <point x="70" y="566" type="curve" smooth="yes"/>
      <point x="70" y="652"/>
      <point x="136" y="711"/>
      <point x="230" y="711" type="curve" smooth="yes"/>
      <point x="296" y="711"/>
      <point x="341" y="691"/>
      <point x="387" y="655" type="curve"/>
      <point x="340" y="575" type="line"/>
      <point x="299" y="604"/>
      <point x="271" y="619"/>
      <point x="229" y="619" type="curve" smooth="yes"/>
      <point x="188" y="619"/>
      <point x="168" y="595"/>
      <point x="168" y="568" type="curve" smooth="yes"/>
      <point x="168" y="535"/>
      <point x="177" y="505"/>
      <point x="201" y="463" type="curve" smooth="yes"/>
      <point x="327" y="246" type="line"/>
      <point x="336" y="276"/>
      <point x="345" y="311"/>
      <point x="354" y="351" type="curve"/>
      <point x="434" y="329" type="line"/>
      <point x="417" y="258"/>
      <point x="401" y="199"/>
      <point x="382" y="151" type="curve"/>
    </contour>
    <contour>
      <point x="288" y="139" type="curve"/>
      <point x="190" y="305" type="line"/>
      <point x="145" y="258"/>
      <point x="128" y="211"/>
      <point x="128" y="173" type="curve" smooth="yes"/>
      <point x="128" y="110"/>
      <point x="153" y="81"/>
      <point x="203" y="81" type="curve" smooth="yes"/>
      <point x="239" y="81"/>
      <point x="265" y="98"/>
    </contour>
  </outline>
</glyph>
<glyph name="quotesingle" format="1">
  <advance width="241"/>
  <unicode hex="0027"/>
  <outline>
    <contour>
      <point x="179" y="700" type="line"/>
      <point x="154" y="373" type="line"/>
      <point x="87" y="373" type="line"/>
      <point x="62" y="700" type="line"/>
    </contour>
  </outline>
</glyph>
<glyph name="parenleft" format="1">
  <advance width="310"/>
  <unicode hex="0028"/>
  <outline>
    <contour>
      <point x="274" y="-70" type="curve"/>
      <point x="221" y="-110" type="line"/>
      <point x="128" y="0"/>
      <point x="50" y="116"/>
      <point x="50" y="300" type="curve" smooth="yes"/>
      <point x="50" y="490"/>
      <point x="124" y="600"/>
      <point x="221" y="716" type="curve"/>
      <point x="274" y="676" type="line"/>
      <point x="198" y="573"/>
      <point x="149" y="466"/>
      <point x="149" y="305" type="curve" smooth="yes"/>
      <point x="149" y="140"/>
      <point x="198" y="32"/>
    </contour>
  </outline>
</glyph>
<glyph name="parenright" format="1">
  <advance width="310"/>
  <unicode hex="0029"/>
  <outline>
    <contour>
      <point x="260" y="306" type="curve" smooth="yes"/>
      <point x="260" y="116"/>
      <point x="186" y="6"/>
      <point x="89" y="-110" type="curve"/>
      <point x="36" y="-70" type="line"/>
      <point x="112" y="33"/>
      <point x="161" y="140"/>
      <point x="161" y="301" type="curve" smooth="yes"/>
      <point x="161" y="466"/>
      <point x="112" y="574"/>
      <point x="36" y="676" type="curve"/>
      <point x="89" y="716" type="line"/>
      <point x="182" y="606"/>
      <point x="260" y="490"/>
    </contour>
  </outline>
</glyph>
<glyph name="asterisk" format="1">
  <advance width="429"/>
  <unicode hex="002A"/>
  <outline>
    <contour>
      <point x="396" y="462" type="line"/>
      <point x="355" y="391" type="line"/>
      <point x="240" y="473" type="line"/>
      <point x="255" y="333" type="line"/>
      <point x="175" y="333" type="line"/>
      <point x="189" y="474" type="line"/>
      <point x="74" y="391" type="line"/>
      <point x="33" y="462" type="line"/>
      <point x="161" y="519" type="line"/>
      <point x="34" y="577" type="line"/>
      <point x="75" y="647" type="line"/>
      <point x="189" y="563" type="line"/>
      <point x="175" y="703" type="line"/>
      <point x="255" y="703" type="line"/>
      <point x="240" y="566" type="line"/>
      <point x="354" y="648" type="line"/>
      <point x="395" y="577" type="line"/>
      <point x="264" y="519" type="line"/>
    </contour>
  </outline>
</glyph>
<glyph name="plus" format="1">
  <advance width="453"/>
  <unicode hex="002B"/>
  <outline>
    <contour>
      <point x="418" y="297" type="line"/>
      <point x="275" y="297" type="line"/>
      <point x="275" y="139" type="line"/>
      <point x="178" y="139" type="line"/>
      <point x="178" y="297" type="line"/>
      <point x="35" y="297" type="line"/>
      <point x="35" y="391" type="line"/>
      <point x="178" y="391" type="line"/>
      <point x="178" y="549" type="line"/>
      <point x="275" y="549" type="line"/>
      <point x="275" y="391" type="line"/>
      <point x="418" y="391" type="line"/>
    </contour>
  </outline>
</glyph>
<glyph name="comma" format="1">
  <advance width="232"/>
  <unicode hex="002C"/>
  <outline>
    <contour>
      <point x="187" y="126" type="line"/>
      <point x="120" y="-113" type="line"/>
      <point x="55" y="-113" type="line"/>
      <point x="68" y="126" type="line"/>
    </contour>
  </outline>
</glyph>
<glyph name="hyphen" format="1">
  <advance width="300"/>
  <unicode hex="002D"/>
  <unicode hex="2010"/>
  <unicode hex="2011"/>
  <outline>
    <contour>
      <point x="260" y="316" type="line"/>
      <point x="40" y="316" type="line"/>
      <point x="40" y="416" type="line"/>
      <point x="260" y="416" type="line"/>
    </contour>
  </outline>
</glyph>
<glyph name="period" format="1">
  <advance width="232"/>
  <unicode hex="002E"/>
  <outline>
    <contour>
      <point x="186" y="59" type="curve" smooth="yes"/>
      <point x="186" y="20"/>
      <point x="155" y="-11"/>
      <point x="116" y="-11" type="curve" smooth="yes"/>
      <point x="77" y="-11"/>
      <point x="46" y="20"/>
      <point x="46" y="59" type="curve" smooth="yes"/>
      <point x="46" y="98"/>
      <point x="77" y="130"/>
      <point x="116" y="130" type="curve" smooth="yes"/>
      <point x="155" y="130"/>
      <point x="186" y="98"/>
    </contour>
  </outline>
</glyph>
<glyph name="slash" format="1">
  <advance width="350"/>
  <unicode hex="002F"/>
  <outline>
    <contour>
      <point x="356" y="790" type="line"/>
      <point x="91" y="-90" type="line"/>
      <point x="-6" y="-90" type="line"/>
      <point x="259" y="790" type="line"/>
    </contour>
  </outline>
</glyph>
<glyph name="zero" format="1">
  <advance width="499"/>
  <unicode hex="0030"/>
  <outline>
    <contour>
      <point x="456" y="351" type="curve" smooth="yes"/>
      <point x="456" y="148"/>
      <point x="396" y="-11"/>
      <point x="248" y="-11" type="curve" smooth="yes"/>
      <point x="100" y="-11"/>
      <point x="43" y="146"/>
      <point x="43" y="349" type="curve" smooth="yes"/>
      <point x="43" y="552"/>
      <point x="101" y="711"/>
      <point x="249" y="711" type="curve" smooth="yes"/>
      <point x="398" y="711"/>
      <point x="456" y="557"/>
    </contour>
    <contour>
      <point x="358" y="349" type="curve" smooth="yes"/>
      <point x="358" y="485"/>
      <point x="332" y="615"/>
      <point x="247" y="615" type="curve" smooth="yes"/>
      <point x="162" y="615"/>
      <point x="141" y="488"/>
      <point x="141" y="351" type="curve" smooth="yes"/>
      <point x="141" y="215"/>
      <point x="166" y="85"/>
      <point x="251" y="85" type="curve" smooth="yes"/>
      <point x="336" y="85"/>
      <point x="358" y="212"/>
    </contour>
  </outline>
</glyph>
<glyph name="one" format="1">
  <advance width="275"/>
  <unicode hex="0031"/>
  <outline>
    <contour>
      <point x="210" y="0" type="line"/>
      <point x="113" y="0" type="line"/>
      <point x="113" y="551" type="line"/>
      <point x="19" y="551" type="line"/>
      <point x="19" y="619" type="line"/>
      <point x="82" y="627"/>
      <point x="115" y="647"/>
      <point x="130" y="700" type="curve"/>
      <point x="210" y="700" type="line"/>
    </contour>
  </outline>
</glyph>
<glyph name="two" format="1">
  <advance width="474"/>
  <unicode hex="0032"/>
  <outline>
    <contour>
      <point x="420" y="0" type="line"/>
      <point x="48" y="0" type="line"/>
      <point x="59" y="212"/>
      <point x="116" y="296"/>
      <point x="243" y="400" type="curve" smooth="yes"/>
      <point x="292" y="440"/>
      <point x="314" y="473"/>
      <point x="314" y="521" type="curve" smooth="yes"/>
      <point x="314" y="580"/>
      <point x="282" y="613"/>
      <point x="229" y="613" type="curve" smooth="yes"/>
      <point x="187" y="613"/>
      <point x="151" y="591"/>
      <point x="112" y="555" type="curve"/>
      <point x="51" y="626" type="line"/>
      <point x="98" y="674"/>
      <point x="152" y="711"/>
      <point x="235" y="711" type="curve" smooth="yes"/>
      <point x="352" y="711"/>
      <point x="414" y="639"/>
      <point x="414" y="534" type="curve" smooth="yes"/>
      <point x="414" y="449"/>
      <point x="383" y="397"/>
      <point x="297" y="326" type="curve" smooth="yes"/>
      <point x="222" y="264"/>
      <point x="174" y="209"/>
      <point x="160" y="98" type="curve"/>
      <point x="420" y="98" type="line"/>
    </contour>
  </outline>
</glyph>
<glyph name="three" format="1">
  <advance width="465"/>
  <unicode hex="0033"/>
  <outline>
    <contour>
      <point x="418" y="201" type="curve" smooth="yes"/>
      <point x="418" y="65"/>
      <point x="330" y="-11"/>
      <point x="216" y="-11" type="curve" smooth="yes"/>
      <point x="129" y="-11"/>
      <point x="71" y="27"/>
      <point x="21" y="101" type="curve"/>
      <point x="93" y="162" type="line"/>
      <point x="136" y="104"/>
      <point x="173" y="84"/>
      <point x="221" y="84" type="curve" smooth="yes"/>
      <point x="278" y="84"/>
      <point x="320" y="124"/>
      <point x="320" y="196" type="curve" smooth="yes"/>
      <point x="320" y="281"/>
      <point x="273" y="323"/>
      <point x="182" y="323" type="curve" smooth="yes"/>
      <point x="159" y="323" type="line"/>
      <point x="159" y="417" type="line"/>
      <point x="184" y="417" type="line" smooth="yes"/>
      <point x="256" y="417"/>
      <point x="304" y="457"/>
      <point x="304" y="528" type="curve" smooth="yes"/>
      <point x="304" y="576"/>
      <point x="279" y="616"/>
      <point x="219" y="616" type="curve" smooth="yes"/>
      <point x="182" y="616"/>
      <point x="151" y="595"/>
      <point x="111" y="557" type="curve"/>
      <point x="51" y="626" type="line"/>
      <point x="101" y="678"/>
      <point x="149" y="711"/>
      <point x="223" y="711" type="curve" smooth="yes"/>
      <point x="328" y="711"/>
      <point x="402" y="650"/>
      <point x="402" y="531" type="curve" smooth="yes"/>
      <point x="402" y="445"/>
      <point x="359" y="401"/>
      <point x="303" y="377" type="curve"/>
      <point x="359" y="359"/>
      <point x="418" y="312"/>
    </contour>
  </outline>
</glyph>
<glyph name="four" format="1">
  <advance width="475"/>
  <unicode hex="0034"/>
  <outline>
    <contour>
      <point x="442" y="169" type="line"/>
      <point x="394" y="169" type="line"/>
      <point x="394" y="0" type="line"/>
      <point x="299" y="0" type="line"/>
      <point x="299" y="169" type="line"/>
      <point x="28" y="169" type="line"/>
      <point x="28" y="246" type="line"/>
      <point x="301" y="700" type="line"/>
      <point x="394" y="700" type="line"/>
      <point x="394" y="262" type="line"/>
      <point x="442" y="262" type="line"/>
    </contour>
    <contour>
      <point x="302" y="544" type="curve"/>
      <point x="286" y="515"/>
      <point x="270" y="484"/>
      <point x="249" y="450" type="curve" smooth="yes"/>
      <point x="181" y="339" type="line" smooth="yes"/>
      <point x="161" y="306"/>
      <point x="148" y="285"/>
      <point x="132" y="261" type="curve"/>
      <point x="152" y="261"/>
      <point x="176" y="262"/>
      <point x="204" y="262" type="curve" smooth="yes"/>
      <point x="299" y="262" type="line"/>
      <point x="299" y="444" type="line" smooth="yes"/>
      <point x="299" y="478"/>
      <point x="301" y="509"/>
    </contour>
  </outline>
</glyph>
<glyph name="five" format="1">
  <advance width="474"/>
  <unicode hex="0035"/>
  <outline>
    <contour>
      <point x="431" y="238" type="curve" smooth="yes"/>
      <point x="431" y="84"/>
      <point x="359" y="-11"/>
      <point x="212" y="-11" type="curve" smooth="yes"/>
      <point x="141" y="-11"/>
      <point x="82" y="19"/>
      <point x="38" y="65" type="curve"/>
      <point x="93" y="139" type="line"/>
      <point x="127" y="107"/>
      <point x="170" y="84"/>
      <point x="217" y="84" type="curve" smooth="yes"/>
      <point x="293" y="84"/>
      <point x="334" y="140"/>
      <point x="334" y="234" type="curve" smooth="yes"/>
      <point x="334" y="311"/>
      <point x="302" y="372"/>
      <point x="235" y="372" type="curve" smooth="yes"/>
      <point x="191" y="372"/>
      <point x="165" y="354"/>
      <point x="144" y="322" type="curve"/>
      <point x="60" y="338" type="line"/>
      <point x="78" y="700" type="line"/>
      <point x="409" y="700" type="line"/>
      <point x="409" y="604" type="line"/>
      <point x="168" y="604" type="line"/>
      <point x="159" y="441" type="line"/>
      <point x="184" y="457"/>
      <point x="208" y="467"/>
      <point x="249" y="467" type="curve" smooth="yes"/>
      <point x="366" y="467"/>
      <point x="431" y="380"/>
    </contour>
  </outline>
</glyph>
<glyph name="six" format="1">
  <advance width="468"/>
  <unicode hex="0036"/>
  <outline>
    <contour>
      <point x="435" y="216" type="curve" smooth="yes"/>
      <point x="435" y="78"/>
      <point x="356" y="-11"/>
      <point x="231" y="-11" type="curve" smooth="yes"/>
      <point x="120" y="-11"/>
      <point x="43" y="67"/>
      <point x="43" y="248" type="curve" smooth="yes"/>
      <point x="43" y="517"/>
      <point x="154" y="692"/>
      <point x="359" y="711" type="curve"/>
      <point x="359" y="619" type="line"/>
      <point x="240" y="604"/>
      <point x="166" y="506"/>
      <point x="147" y="387" type="curve"/>
      <point x="173" y="416"/>
      <point x="208" y="432"/>
      <point x="257" y="432" type="curve" smooth="yes"/>
      <point x="363" y="432"/>
      <point x="435" y="343"/>
    </contour>
    <contour>
      <point x="340" y="214" type="curve" smooth="yes"/>
      <point x="340" y="288"/>
      <point x="302" y="339"/>
      <point x="237" y="339" type="curve" smooth="yes"/>
      <point x="174" y="339"/>
      <point x="138" y="290"/>
      <point x="138" y="208" type="curve" smooth="yes"/>
      <point x="138" y="134"/>
      <point x="174" y="82"/>
      <point x="237" y="82" type="curve" smooth="yes"/>
      <point x="303" y="82"/>
      <point x="340" y="133"/>
    </contour>
  </outline>
</glyph>
<glyph name="seven" format="1">
  <advance width="440"/>
  <unicode hex="0037"/>
  <outline>
    <contour>
      <point x="402" y="600" type="line"/>
      <point x="263" y="438"/>
      <point x="230" y="232"/>
      <point x="230" y="0" type="curve"/>
      <point x="132" y="0" type="line"/>
      <point x="132" y="249"/>
      <point x="175" y="452"/>
      <point x="297" y="605" type="curve"/>
      <point x="30" y="605" type="line"/>
      <point x="30" y="700" type="line"/>
      <point x="402" y="700" type="line"/>
    </contour>
  </outline>
</glyph>
<glyph name="eight" format="1">
  <advance width="478"/>
  <unicode hex="0038"/>
  <outline>
    <contour>
      <point x="437" y="211" type="curve" smooth="yes"/>
      <point x="437" y="76"/>
      <point x="352" y="-11"/>
      <point x="243" y="-11" type="curve" smooth="yes"/>
      <point x="137" y="-11"/>
      <point x="45" y="61"/>
      <point x="45" y="207" type="curve" smooth="yes"/>
      <point x="45" y="297"/>
      <point x="82" y="350"/>
      <point x="131" y="383" type="curve"/>
      <point x="89" y="410"/>
      <point x="60" y="456"/>
      <point x="60" y="518" type="curve" smooth="yes"/>
      <point x="60" y="636"/>
      <point x="135" y="711"/>
      <point x="242" y="711" type="curve" smooth="yes"/>
      <point x="351" y="711"/>
      <point x="423" y="634"/>
      <point x="423" y="520" type="curve" smooth="yes"/>
      <point x="423" y="455"/>
      <point x="391" y="409"/>
      <point x="351" y="383" type="curve"/>
      <point x="402" y="349"/>
      <point x="437" y="293"/>
    </contour>
    <contour>
      <point x="327" y="520" type="curve" smooth="yes"/>
      <point x="327" y="581"/>
      <point x="295" y="617"/>
      <point x="241" y="617" type="curve" smooth="yes"/>
      <point x="187" y="617"/>
      <point x="156" y="581"/>
      <point x="156" y="520" type="curve" smooth="yes"/>
      <point x="156" y="466"/>
      <point x="188" y="425"/>
      <point x="242" y="425" type="curve" smooth="yes"/>
      <point x="298" y="425"/>
      <point x="327" y="466"/>
    </contour>
    <contour>
      <point x="341" y="209" type="curve" smooth="yes"/>
      <point x="341" y="284"/>
      <point x="304" y="332"/>
      <point x="242" y="332" type="curve" smooth="yes"/>
      <point x="179" y="332"/>
      <point x="141" y="284"/>
      <point x="141" y="209" type="curve" smooth="yes"/>
      <point x="141" y="125"/>
      <point x="182" y="83"/>
      <point x="245" y="83" type="curve" smooth="yes"/>
      <point x="304" y="83"/>
      <point x="341" y="127"/>
    </contour>
  </outline>
</glyph>
<glyph name="nine" format="1">
  <advance width="468"/>
  <unicode hex="0039"/>
  <outline>
    <contour>
      <point x="425" y="452" type="curve" smooth="yes"/>
      <point x="425" y="183"/>
      <point x="314" y="8"/>
      <point x="109" y="-11" type="curve"/>
      <point x="109" y="81" type="line"/>
      <point x="228" y="96"/>
      <point x="302" y="194"/>
      <point x="321" y="313" type="curve"/>
      <point x="295" y="284"/>
      <point x="260" y="268"/>
      <point x="211" y="268" type="curve" smooth="yes"/>
      <point x="105" y="268"/>
      <point x="33" y="357"/>
      <point x="33" y="484" type="curve" smooth="yes"/>
      <point x="33" y="622"/>
      <point x="112" y="711"/>
      <point x="237" y="711" type="curve" smooth="yes"/>
      <point x="348" y="711"/>
      <point x="425" y="633"/>
    </contour>
    <contour>
      <point x="330" y="492" type="curve" smooth="yes"/>
      <point x="330" y="566"/>
      <point x="294" y="618"/>
      <point x="231" y="618" type="curve" smooth="yes"/>
      <point x="165" y="618"/>
      <point x="128" y="567"/>
      <point x="128" y="486" type="curve" smooth="yes"/>
      <point x="128" y="412"/>
      <point x="166" y="361"/>
      <point x="231" y="361" type="curve" smooth="yes"/>
      <point x="294" y="361"/>
      <point x="330" y="410"/>
    </contour>
  </outline>
</glyph>
<glyph name="colon" format="1">
  <advance width="232"/>
  <unicode hex="003A"/>
  <outline>
    <contour>
      <point x="186" y="465" type="curve" smooth="yes"/>
      <point x="186" y="426"/>
      <point x="155" y="395"/>
      <point x="116" y="395" type="curve" smooth="yes"/>
      <point x="77" y="395"/>
      <point x="46" y="426"/>
      <point x="46" y="465" type="curve" smooth="yes"/>
      <point x="46" y="504"/>
      <point x="77" y="536"/>
      <point x="116" y="536" type="curve" smooth="yes"/>
      <point x="155" y="536"/>
      <point x="186" y="504"/>
    </contour>
    <contour>
      <point x="186" y="59" type="curve" smooth="yes"/>
      <point x="186" y="20"/>
      <point x="155" y="-11"/>
      <point x="116" y="-11" type="curve" smooth="yes"/>
      <point x="77" y="-11"/>
      <point x="46" y="20"/>
      <point x="46" y="59" type="curve" smooth="yes"/>
      <point x="46" y="98"/>
      <point x="77" y="130"/>
      <point x="116" y="130" type="curve" smooth="yes"/>
      <point x="155" y="130"/>
      <point x="186" y="98"/>
    </contour>
  </outline>
</glyph>
<glyph name="semicolon" format="1">
  <advance width="232"/>
  <unicode hex="003B"/>
  <outline>
    <contour>
      <point x="186" y="465" type="curve" smooth="yes"/>
      <point x="186" y="426"/>
      <point x="155" y="395"/>
      <point x="116" y="395" type="curve" smooth="yes"/>
      <point x="77" y="395"/>
      <point x="46" y="426"/>
      <point x="46" y="465" type="curve" smooth="yes"/>
      <point x="46" y="504"/>
      <point x="77" y="536"/>
      <point x="116" y="536" type="curve" smooth="yes"/>
      <point x="155" y="536"/>
      <point x="186" y="504"/>
    </contour>
    <contour>
      <point x="177" y="126" type="line"/>
      <point x="110" y="-113" type="line"/>
      <point x="45" y="-113" type="line"/>
      <point x="58" y="126" type="line"/>
    </contour>
  </outline>
</glyph>
<glyph name="question" format="1">
  <advance width="451"/>
  <unicode hex="003F"/>
  <outline>
    <contour>
      <point x="411" y="537" type="curve" smooth="yes"/>
      <point x="411" y="442"/>
      <point x="367" y="398"/>
      <point x="307" y="358" type="curve" smooth="yes"/>
      <point x="255" y="322"/>
      <point x="252" y="290"/>
      <point x="252" y="202" type="curve"/>
      <point x="151" y="202" type="line"/>
      <point x="151" y="319"/>
      <point x="159" y="368"/>
      <point x="253" y="430" type="curve" smooth="yes"/>
      <point x="292" y="456"/>
      <point x="310" y="487"/>
      <point x="310" y="528" type="curve" smooth="yes"/>
      <point x="310" y="584"/>
      <point x="274" y="612"/>
      <point x="222" y="612" type="curve" smooth="yes"/>
      <point x="172" y="612"/>
      <point x="131" y="589"/>
      <point x="80" y="543" type="curve"/>
      <point x="18" y="616" type="line"/>
      <point x="75" y="673"/>
      <point x="141" y="711"/>
      <point x="226" y="711" type="curve" smooth="yes"/>
      <point x="347" y="711"/>
      <point x="411" y="641"/>
    </contour>
    <contour>
      <point x="273" y="57" type="curve" smooth="yes"/>
      <point x="273" y="19"/>
      <point x="243" y="-11"/>
      <point x="205" y="-11" type="curve" smooth="yes"/>
      <point x="167" y="-11"/>
      <point x="137" y="19"/>
      <point x="137" y="57" type="curve" smooth="yes"/>
      <point x="137" y="95"/>
      <point x="167" y="126"/>
      <point x="205" y="126" type="curve" smooth="yes"/>
      <point x="243" y="126"/>
      <point x="273" y="95"/>
    </contour>
  </outline>
</glyph>
<glyph name="A" format="1">
  <advance width="494"/>
  <unicode hex="0041"/>
  <outline>
    <contour>
      <point x="469" y="0" type="line"/>
      <point x="362" y="0" type="line"/>
      <point x="321" y="185" type="line"/>
      <point x="169" y="185" type="line"/>
      <point x="129" y="0" type="line"/>
      <point x="25" y="0" type="line"/>
      <point x="197" y="700" type="line"/>
      <point x="298" y="700" type="line"/>
    </contour>
    <contour>
      <point x="301" y="278" type="line"/>
      <point x="275" y="396" type="line" smooth="yes"/>
      <point x="265" y="442"/>
      <point x="250" y="523"/>
      <point x="245" y="549" type="curve"/>
      <point x="240" y="523"/>
      <point x="225" y="443"/>
      <point x="215" y="396" type="curve" smooth="yes"/>
      <point x="189" y="278" type="line"/>
    </contour>
  </outline>
</glyph>
<glyph name="B" format="1">
  <advance width="497"/>
  <unicode hex="0042"/>
  <outline>
    <contour>
      <point x="452" y="211" type="curve" smooth="yes"/>
      <point x="452" y="71"/>
      <point x="372" y="0"/>
      <point x="256" y="0" type="curve" smooth="yes"/>
      <point x="70" y="0" type="line"/>
      <point x="70" y="700" type="line"/>
      <point x="246" y="700" type="line" smooth="yes"/>
      <point x="357" y="700"/>
      <point x="440" y="645"/>
      <point x="440" y="515" type="curve" smooth="yes"/>
      <point x="440" y="458"/>
      <point x="414" y="396"/>
      <point x="358" y="370" type="curve"/>
      <point x="417" y="349"/>
      <point x="452" y="287"/>
    </contour>
    <contour>
      <point x="340" y="512" type="curve" smooth="yes"/>
      <point x="340" y="581"/>
      <point x="302" y="605"/>
      <point x="249" y="605" type="curve" smooth="yes"/>
      <point x="167" y="605" type="line"/>
      <point x="167" y="415" type="line"/>
      <point x="247" y="415" type="line" smooth="yes"/>
      <point x="299" y="415"/>
      <point x="340" y="445"/>
    </contour>
    <contour>
      <point x="352" y="211" type="curve" smooth="yes"/>
      <point x="352" y="289"/>
      <point x="306" y="321"/>
      <point x="245" y="321" type="curve" smooth="yes"/>
      <point x="167" y="321" type="line"/>
      <point x="167" y="95" type="line"/>
      <point x="255" y="95" type="line" smooth="yes"/>
      <point x="314" y="95"/>
      <point x="352" y="127"/>
    </contour>
  </outline>
</glyph>
<glyph name="C" format="1">
  <advance width="480"/>
  <unicode hex="0043"/>
  <outline>
    <contour>
      <point x="437" y="166" type="line"/>
      <point x="415" y="61"/>
      <point x="366" y="-11"/>
      <point x="251" y="-11" type="curve" smooth="yes"/>
      <point x="100" y="-11"/>
      <point x="45" y="150"/>
      <point x="45" y="349" type="curve" smooth="yes"/>
      <point x="45" y="552"/>
      <point x="106" y="711"/>
      <point x="254" y="711" type="curve" smooth="yes"/>
      <point x="371" y="711"/>
      <point x="419" y="640"/>
      <point x="436" y="540" type="curve"/>
      <point x="337" y="515" type="line"/>
      <point x="324" y="578"/>
      <point x="305" y="612"/>
      <point x="251" y="612" type="curve" smooth="yes"/>
      <point x="166" y="612"/>
      <point x="146" y="474"/>
      <point x="146" y="351" type="curve" smooth="yes"/>
      <point x="146" y="222"/>
      <point x="173" y="88"/>
      <point x="258" y="88" type="curve" smooth="yes"/>
      <point x="305" y="88"/>
      <point x="327" y="120"/>
      <point x="346" y="195" type="curve"/>
    </contour>
  </outline>
</glyph>
<glyph name="D" format="1">
  <advance width="507"/>
  <unicode hex="0044"/>
  <outline>
    <contour>
      <point x="462" y="353" type="curve" smooth="yes"/>
      <point x="462" y="145"/>
      <point x="388" y="0"/>
      <point x="240" y="0" type="curve" smooth="yes"/>
      <point x="70" y="0" type="line"/>
      <point x="70" y="700" type="line"/>
      <point x="240" y="700" type="line" smooth="yes"/>
      <point x="395" y="700"/>
      <point x="462" y="561"/>
    </contour>
    <contour>
      <point x="361" y="353" type="curve" smooth="yes"/>
      <point x="361" y="476"/>
      <point x="335" y="604"/>
      <point x="237" y="604" type="curve" smooth="yes"/>
      <point x="168" y="604" type="line"/>
      <point x="168" y="96" type="line"/>
      <point x="240" y="96" type="line" smooth="yes"/>
      <point x="334" y="96"/>
      <point x="361" y="230"/>
    </contour>
  </outline>
</glyph>
<glyph name="E" format="1">
  <advance width="445"/>
  <unicode hex="0045"/>
  <outline>
    <contour>
      <point x="412" y="0" type="line"/>
      <point x="70" y="0" type="line"/>
      <point x="70" y="700" type="line"/>
      <point x="399" y="700" type="line"/>
      <point x="399" y="605" type="line"/>
      <point x="168" y="605" type="line"/>
      <point x="168" y="418" type="line"/>
      <point x="319" y="418" type="line"/>
      <point x="319" y="324" type="line"/>
      <point x="168" y="324" type="line"/>
      <point x="168" y="95" type="line"/>
      <point x="412" y="95" type="line"/>
    </contour>
  </outline>
</glyph>
<glyph name="F" format="1">
  <advance width="428"/>
  <unicode hex="0046"/>
  <outline>
    <contour>
      <point x="404" y="605" type="line"/>
      <point x="168" y="605" type="line"/>
      <point x="168" y="413" type="line"/>
      <point x="319" y="413" type="line"/>
      <point x="319" y="319" type="line"/>
      <point x="168" y="319" type="line"/>
      <point x="168" y="0" type="line"/>
      <point x="70" y="0" type="line"/>
      <point x="70" y="700" type="line"/>
      <point x="404" y="700" type="line"/>
    </contour>
  </outline>
</glyph>
<glyph name="G" format="1">
  <advance width="511"/>
  <unicode hex="0047"/>
  <outline>
    <contour>
      <point x="453" y="205" type="line" smooth="yes"/>
      <point x="453" y="87"/>
      <point x="397" y="-11"/>
      <point x="256" y="-11" type="curve" smooth="yes"/>
      <point x="107" y="-11"/>
      <point x="45" y="150"/>
      <point x="45" y="350" type="curve" smooth="yes"/>
      <point x="45" y="561"/>
      <point x="113" y="711"/>
      <point x="259" y="711" type="curve" smooth="yes"/>
      <point x="373" y="711"/>
      <point x="426" y="645"/>
      <point x="446" y="540" type="curve"/>
      <point x="348" y="514" type="line"/>
      <point x="332" y="586"/>
      <point x="306" y="612"/>
      <point x="256" y="612" type="curve" smooth="yes"/>
      <point x="179" y="612"/>
      <point x="146" y="500"/>
      <point x="146" y="350" type="curve" smooth="yes"/>
      <point x="146" y="231"/>
      <point x="171" y="88"/>
      <point x="263" y="88" type="curve" smooth="yes"/>
      <point x="329" y="88"/>
      <point x="353" y="128"/>
      <point x="353" y="214" type="curve" smooth="yes"/>
      <point x="353" y="264" type="line"/>
      <point x="275" y="264" type="line"/>
      <point x="275" y="360" type="line"/>
      <point x="453" y="360" type="line"/>
    </contour>
  </outline>
</glyph>
<glyph name="H" format="1">
  <advance width="532"/>
  <unicode hex="0048"/>
  <outline>
    <contour>
      <point x="462" y="0" type="line"/>
      <point x="364" y="0" type="line"/>
      <point x="364" y="324" type="line"/>
      <point x="168" y="324" type="line"/>
      <point x="168" y="0" type="line"/>
      <point x="70" y="0" type="line"/>
      <point x="70" y="700" type="line"/>
      <point x="168" y="700" type="line"/>
      <point x="168" y="420" type="line"/>
      <point x="364" y="420" type="line"/>
      <point x="364" y="700" type="line"/>
      <point x="462" y="700" type="line"/>
    </contour>
  </outline>
</glyph>
<glyph name="J" format="1">
  <advance width="438"/>
  <unicode hex="004A"/>
  <outline>
    <contour>
      <point x="371" y="200" type="line" smooth="yes"/>
      <point x="371" y="66"/>
      <point x="313" y="-11"/>
      <point x="193" y="-11" type="curve" smooth="yes"/>
      <point x="75" y="-11"/>
      <point x="30" y="64"/>
      <point x="16" y="170" type="curve"/>
      <point x="105" y="193" type="line"/>
      <point x="120" y="115"/>
      <point x="143" y="86"/>
      <point x="193" y="86" type="curve" smooth="yes"/>
      <point x="254" y="86"/>
      <point x="273" y="130"/>
      <point x="273" y="197" type="curve" smooth="yes"/>
      <point x="273" y="700" type="line"/>
      <point x="371" y="700" type="line"/>
    </contour>
  </outline>
</glyph>
<glyph name="K" format="1">
  <advance width="482"/>
  <unicode hex="004B"/>
  <outline>
    <contour>
      <point x="462" y="0" type="line"/>
      <point x="356" y="0" type="line"/>
      <point x="226" y="351" type="line"/>
      <point x="168" y="257" type="line"/>
      <point x="168" y="0" type="line"/>
      <point x="70" y="0" type="line"/>
      <point x="70" y="700" type="line"/>
      <point x="168" y="700" type="line"/>
      <point x="168" y="523" type="line" smooth="yes"/>
      <point x="168" y="497"/>
      <point x="167" y="433"/>
      <point x="166" y="411" type="curve"/>
      <point x="177" y="430"/>
      <point x="207" y="485"/>
      <point x="222" y="510" type="curve" smooth="yes"/>
      <point x="337" y="700" type="line"/>
      <point x="448" y="700" type="line"/>
      <point x="296" y="454" type="line"/>
    </contour>
  </outline>
</glyph>
<glyph name="L" format="1">
  <advance width="418"/>
  <unicode hex="004C"/>
  <outline>
    <contour>
      <point x="392" y="0" type="line"/>
      <point x="70" y="0" type="line"/>
      <point x="70" y="700" type="line"/>
      <point x="168" y="700" type="line"/>
      <point x="168" y="96" type="line"/>
      <point x="392" y="96" type="line"/>
    </contour>
  </outline>
</glyph>
<glyph name="M" format="1">
  <advance width="612"/>
  <unicode hex="004D"/>
  <outline>
    <contour>
      <point x="542" y="0" type="line"/>
      <point x="446" y="0" type="line"/>
      <point x="446" y="282" type="line" smooth="yes"/>
      <point x="446" y="326"/>
      <point x="447" y="428"/>
      <point x="448" y="455" type="curve"/>
      <point x="440" y="427"/>
      <point x="410" y="325"/>
      <point x="394" y="274" type="curve" smooth="yes"/>
      <point x="304" y="-19" type="line"/>
      <point x="214" y="274" type="line" smooth="yes"/>
      <point x="198" y="325"/>
      <point x="168" y="427"/>
      <point x="160" y="455" type="curve"/>
      <point x="161" y="428"/>
      <point x="162" y="326"/>
      <point x="162" y="282" type="curve" smooth="yes"/>
      <point x="162" y="0" type="line"/>
      <point x="70" y="0" type="line"/>
      <point x="70" y="700" type="line"/>
      <point x="173" y="700" type="line"/>
      <point x="263" y="409" type="line" smooth="yes"/>
      <point x="276" y="367"/>
      <point x="300" y="281"/>
      <point x="306" y="256" type="curve"/>
      <point x="313" y="282"/>
      <point x="337" y="371"/>
      <point x="350" y="412" type="curve" smooth="yes"/>
      <point x="440" y="700" type="line"/>
      <point x="542" y="700" type="line"/>
    </contour>
  </outline>
</glyph>
<glyph name="N" format="1">
  <advance width="532"/>
  <unicode hex="004E"/>
  <outline>
    <contour>
      <point x="462" y="0" type="line"/>
      <point x="382" y="0" type="line"/>
      <point x="213" y="375" type="line" smooth="yes"/>
      <point x="199" y="405"/>
      <point x="173" y="470"/>
      <point x="164" y="490" type="curve"/>
      <point x="165" y="464"/>
      <point x="166" y="384"/>
      <point x="166" y="350" type="curve" smooth="yes"/>
      <point x="166" y="0" type="line"/>
      <point x="70" y="0" type="line"/>
      <point x="70" y="700" type="line"/>
      <point x="168" y="700" type="line"/>
      <point x="319" y="367" type="line" smooth="yes"/>
      <point x="333" y="337"/>
      <point x="359" y="272"/>
      <point x="368" y="252" type="curve"/>
      <point x="367" y="278"/>
      <point x="366" y="358"/>
      <point x="366" y="392" type="curve" smooth="yes"/>
      <point x="366" y="700" type="line"/>
      <point x="462" y="700" type="line"/>
    </contour>
  </outline>
</glyph>
<glyph name="O" format="1">
  <advance width="513"/>
  <unicode hex="004F"/>
  <outline>
    <contour>
      <point x="468" y="351" type="curve" smooth="yes"/>
      <point x="468" y="148"/>
      <point x="403" y="-11"/>
      <point x="255" y="-11" type="curve" smooth="yes"/>
      <point x="107" y="-11"/>
      <point x="45" y="146"/>
      <point x="45" y="349" type="curve" smooth="yes"/>
      <point x="45" y="552"/>
      <point x="108" y="711"/>
      <point x="256" y="711" type="curve" smooth="yes"/>
      <point x="404" y="711"/>
      <point x="468" y="554"/>
    </contour>
    <contour>
      <point x="368" y="349" type="curve" smooth="yes"/>
      <point x="368" y="479"/>
      <point x="339" y="613"/>
      <point x="254" y="613" type="curve" smooth="yes"/>
      <point x="169" y="613"/>
      <point x="145" y="481"/>
      <point x="145" y="351" type="curve" smooth="yes"/>
      <point x="145" y="221"/>
      <point x="173" y="87"/>
      <point x="258" y="87" type="curve" smooth="yes"/>
      <point x="343" y="87"/>
      <point x="368" y="219"/>
    </contour>
  </outline>
</glyph>
<glyph name="P" format="1">
  <advance width="478"/>
  <unicode hex="0050"/>
  <outline>
    <contour>
      <point x="452" y="496" type="curve" smooth="yes"/>
      <point x="452" y="354"/>
      <point x="356" y="285"/>
      <point x="250" y="285" type="curve" smooth="yes"/>
      <point x="168" y="285" type="line"/>
      <point x="168" y="0" type="line"/>
      <point x="70" y="0" type="line"/>
      <point x="70" y="700" type="line"/>
      <point x="255" y="700" type="line" smooth="yes"/>
      <point x="354" y="700"/>
      <point x="452" y="641"/>
    </contour>
    <contour>
      <point x="351" y="493" type="curve" smooth="yes"/>
      <point x="351" y="572"/>
      <point x="304" y="604"/>
      <point x="248" y="604" type="curve" smooth="yes"/>
      <point x="168" y="604" type="line"/>
      <point x="168" y="380" type="line"/>
      <point x="251" y="380" type="line" smooth="yes"/>
      <point x="308" y="380"/>
      <point x="351" y="417"/>
    </contour>
  </outline>
</glyph>
<glyph name="Q" format="1">
  <advance width="513"/>
  <unicode hex="0051"/>
  <outline>
    <contour>
      <point x="468" y="350" type="curve" smooth="yes"/>
      <point x="468" y="228"/>
      <point x="443" y="123"/>
      <point x="392" y="59" type="curve"/>
      <point x="427" y="4" type="line"/>
      <point x="358" y="-36" type="line"/>
      <point x="330" y="7" type="line"/>
      <point x="309" y="-4"/>
      <point x="284" y="-11"/>
      <point x="256" y="-11" type="curve" smooth="yes"/>
      <point x="108" y="-11"/>
      <point x="45" y="147"/>
      <point x="45" y="350" type="curve" smooth="yes"/>
      <point x="45" y="553"/>
      <point x="108" y="711"/>
      <point x="256" y="711" type="curve" smooth="yes"/>
      <point x="404" y="711"/>
      <point x="468" y="553"/>
    </contour>
    <contour>
      <point x="368" y="350" type="curve" smooth="yes"/>
      <point x="368" y="480"/>
      <point x="341" y="613"/>
      <point x="256" y="613" type="curve" smooth="yes"/>
      <point x="171" y="613"/>
      <point x="145" y="480"/>
      <point x="145" y="350" type="curve" smooth="yes"/>
      <point x="145" y="220"/>
      <point x="171" y="84"/>
      <point x="256" y="84" type="curve" smooth="yes"/>
      <point x="263" y="84"/>
      <point x="271" y="85"/>
      <point x="278" y="88" type="curve"/>
      <point x="230" y="161" type="line"/>
      <point x="299" y="201" type="line"/>
      <point x="336" y="144" type="line"/>
      <point x="361" y="197"/>
      <point x="368" y="274"/>
    </contour>
  </outline>
</glyph>
<glyph name="R" format="1">
  <advance width="510"/>
  <unicode hex="0052"/>
  <outline>
    <contour>
      <point x="464" y="0" type="line"/>
      <point x="355" y="0" type="line"/>
      <point x="249" y="305" type="line"/>
      <point x="168" y="305" type="line"/>
      <point x="168" y="0" type="line"/>
      <point x="70" y="0" type="line"/>
      <point x="70" y="700" type="line"/>
      <point x="267" y="700" type="line" smooth="yes"/>
      <point x="369" y="700"/>
      <point x="462" y="645"/>
      <point x="462" y="506" type="curve" smooth="yes"/>
      <point x="462" y="405"/>
      <point x="418" y="348"/>
      <point x="352" y="322" type="curve"/>
    </contour>
    <contour>
      <point x="361" y="503" type="curve" smooth="yes"/>
      <point x="361" y="575"/>
      <point x="318" y="605"/>
      <point x="259" y="605" type="curve" smooth="yes"/>
      <point x="168" y="605" type="line"/>
      <point x="168" y="399" type="line"/>
      <point x="259" y="399" type="line" smooth="yes"/>
      <point x="322" y="399"/>
      <point x="361" y="430"/>
    </contour>
  </outline>
</glyph>
<glyph name="S" format="1">
  <advance width="443"/>
  <unicode hex="0053"/>
  <outline>
    <contour>
      <point x="403" y="181" type="curve" smooth="yes"/>
      <point x="403" y="69"/>
      <point x="336" y="-11"/>
      <point x="212" y="-11" type="curve" smooth="yes"/>
      <point x="124" y="-11"/>
      <point x="67" y="35"/>
      <point x="27" y="103" type="curve"/>
      <point x="104" y="165" type="line"/>
      <point x="142" y="105"/>
      <point x="175" y="87"/>
      <point x="218" y="87" type="curve" smooth="yes"/>
      <point x="271" y="87"/>
      <point x="302" y="119"/>
      <point x="302" y="176" type="curve" smooth="yes"/>
      <point x="302" y="230"/>
      <point x="279" y="261"/>
      <point x="185" y="323" type="curve" smooth="yes"/>
      <point x="106" y="375"/>
      <point x="44" y="426"/>
      <point x="44" y="536" type="curve" smooth="yes"/>
      <point x="44" y="638"/>
      <point x="112" y="711"/>
      <point x="221" y="711" type="curve" smooth="yes"/>
      <point x="302" y="711"/>
      <point x="349" y="677"/>
      <point x="391" y="616" type="curve"/>
      <point x="319" y="552" type="line"/>
      <point x="285" y="597"/>
      <point x="262" y="613"/>
      <point x="218" y="613" type="curve" smooth="yes"/>
      <point x="171" y="613"/>
      <point x="145" y="583"/>
      <point x="145" y="539" type="curve" smooth="yes"/>
      <point x="145" y="487"/>
      <point x="169" y="458"/>
      <point x="247" y="408" type="curve" smooth="yes"/>
      <point x="334" y="352"/>
      <point x="403" y="298"/>
    </contour>
  </outline>
</glyph>
<glyph name="T" format="1">
  <advance width="422"/>
  <unicode hex="0054"/>
  <outline>
    <contour>
      <point x="389" y="604" type="line"/>
      <point x="260" y="604" type="line"/>
      <point x="260" y="0" type="line"/>
      <point x="162" y="0" type="line"/>
      <point x="162" y="604" type="line"/>
      <point x="33" y="604" type="line"/>
      <point x="33" y="700" type="line"/>
      <point x="389" y="700" type="line"/>
    </contour>
  </outline>
</glyph>
<glyph name="U" format="1">
  <advance width="526"/>
  <unicode hex="0055"/>
  <outline>
    <contour>
      <point x="459" y="208" type="line" smooth="yes"/>
      <point x="459" y="72"/>
      <point x="383" y="-11"/>
      <point x="263" y="-11" type="curve" smooth="yes"/>
      <point x="147" y="-11"/>
      <point x="67" y="75"/>
      <point x="67" y="202" type="curve" smooth="yes"/>
      <point x="67" y="700" type="line"/>
      <point x="165" y="700" type="line"/>
      <point x="165" y="206" type="line" smooth="yes"/>
      <point x="165" y="148"/>
      <point x="190" y="88"/>
      <point x="263" y="88" type="curve" smooth="yes"/>
      <point x="340" y="88"/>
      <point x="362" y="151"/>
      <point x="362" y="205" type="curve" smooth="yes"/>
      <point x="362" y="700" type="line"/>
      <point x="459" y="700" type="line"/>
    </contour>
  </outline>
</glyph>
<glyph name="V" format="1">
  <advance width="484"/>
  <unicode hex="0056"/>
  <outline>
    <contour>
      <point x="459" y="700" type="line"/>
      <point x="278" y="0" type="line"/>
      <point x="205" y="0" type="line"/>
      <point x="25" y="700" type="line"/>
      <point x="132" y="700" type="line"/>
      <point x="213" y="349" type="line" smooth="yes"/>
      <point x="221" y="313"/>
      <point x="239" y="226"/>
      <point x="244" y="201" type="curve"/>
      <point x="249" y="226"/>
      <point x="267" y="312"/>
      <point x="275" y="349" type="curve" smooth="yes"/>
      <point x="355" y="700" type="line"/>
    </contour>
  </outline>
</glyph>
<glyph name="W" format="1">
  <advance width="618"/>
  <unicode hex="0057"/>
  <outline>
    <contour>
      <point x="590" y="700" type="line"/>
      <point x="464" y="0" type="line"/>
      <point x="389" y="0" type="line"/>
      <point x="341" y="245" type="line" smooth="yes"/>
      <point x="332" y="289"/>
      <point x="310" y="415"/>
      <point x="307" y="440" type="curve"/>
      <point x="304" y="415"/>
      <point x="282" y="290"/>
      <point x="274" y="248" type="curve" smooth="yes"/>
      <point x="226" y="0" type="line"/>
      <point x="153" y="0" type="line"/>
      <point x="28" y="700" type="line"/>
      <point x="126" y="700" type="line"/>
      <point x="168" y="448" type="line" smooth="yes"/>
      <point x="175" y="405"/>
      <point x="198" y="260"/>
      <point x="201" y="235" type="curve"/>
      <point x="204" y="260"/>
      <point x="227" y="406"/>
      <point x="233" y="447" type="curve" smooth="yes"/>
      <point x="273" y="700" type="line"/>
      <point x="348" y="700" type="line"/>
      <point x="389" y="447" type="line" smooth="yes"/>
      <point x="396" y="405"/>
      <point x="419" y="260"/>
      <point x="422" y="235" type="curve"/>
      <point x="426" y="260"/>
      <point x="447" y="404"/>
      <point x="454" y="448" type="curve" smooth="yes"/>
      <point x="495" y="700" type="line"/>
    </contour>
  </outline>
</glyph>
<glyph name="X" format="1">
  <advance width="465"/>
  <unicode hex="0058"/>
  <outline>
    <contour>
      <point x="437" y="0" type="line"/>
      <point x="329" y="0" type="line"/>
      <point x="276" y="136" type="line" smooth="yes"/>
      <point x="263" y="170"/>
      <point x="237" y="238"/>
      <point x="231" y="260" type="curve"/>
      <point x="224" y="237"/>
      <point x="199" y="169"/>
      <point x="186" y="136" type="curve" smooth="yes"/>
      <point x="133" y="0" type="line"/>
      <point x="28" y="0" type="line"/>
      <point x="181" y="360" type="line"/>
      <point x="38" y="700" type="line"/>
      <point x="146" y="700" type="line"/>
      <point x="189" y="589" type="line" smooth="yes"/>
      <point x="202" y="556"/>
      <point x="228" y="485"/>
      <point x="234" y="463" type="curve"/>
      <point x="241" y="486"/>
      <point x="267" y="557"/>
      <point x="279" y="589" type="curve" smooth="yes"/>
      <point x="322" y="700" type="line"/>
      <point x="427" y="700" type="line"/>
      <point x="284" y="363" type="line"/>
    </contour>
  </outline>
</glyph>
<glyph name="Y" format="1">
  <advance width="493"/>
  <unicode hex="0059"/>
  <outline>
    <contour>
      <point x="471" y="700" type="line"/>
      <point x="298" y="313" type="line"/>
      <point x="298" y="0" type="line"/>
      <point x="200" y="0" type="line"/>
      <point x="200" y="310" type="line"/>
      <point x="22" y="700" type="line"/>
      <point x="133" y="700" type="line"/>
      <point x="195" y="554" type="line" smooth="yes"/>
      <point x="210" y="519"/>
      <point x="243" y="432"/>
      <point x="250" y="408" type="curve"/>
      <point x="257" y="433"/>
      <point x="289" y="519"/>
      <point x="304" y="555" type="curve" smooth="yes"/>
      <point x="364" y="700" type="line"/>
    </contour>
  </outline>
</glyph>
<glyph name="Z" format="1">
  <advance width="460"/>
  <unicode hex="005A"/>
  <outline>
    <contour>
      <point x="413" y="0" type="line"/>
      <point x="41" y="0" type="line"/>
      <point x="41" y="91" type="line"/>
      <point x="241" y="485" type="line" smooth="yes"/>
      <point x="264" y="531"/>
      <point x="298" y="592"/>
      <point x="309" y="611" type="curve"/>
      <point x="288" y="610"/>
      <point x="242" y="609"/>
      <point x="208" y="609" type="curve" smooth="yes"/>
      <point x="67" y="609" type="line"/>
      <point x="67" y="700" type="line"/>
      <point x="407" y="700" type="line"/>
      <point x="407" y="609" type="line"/>
      <point x="206" y="214" type="line" smooth="yes"/>
      <point x="183" y="169"/>
      <point x="149" y="108"/>
      <point x="138" y="89" type="curve"/>
      <point x="159" y="90"/>
      <point x="205" y="91"/>
      <point x="239" y="91" type="curve" smooth="yes"/>
      <point x="413" y="91" type="line"/>
    </contour>
  </outline>
</glyph>
<glyph name="bracketleft" format="1">
  <advance width="325"/>
  <unicode hex="005B"/>
  <outline>
    <contour>
      <point x="274" y="-100" type="line"/>
      <point x="75" y="-100" type="line"/>
      <point x="75" y="700" type="line"/>
      <point x="274" y="700" type="line"/>
      <point x="274" y="618" type="line"/>
      <point x="168" y="618" type="line"/>
      <point x="168" y="-18" type="line"/>
      <point x="274" y="-18" type="line"/>
    </contour>
  </outline>
</glyph>
<glyph name="backslash" format="1">
  <advance width="350"/>
  <unicode hex="005C"/>
  <outline>
    <contour>
      <point x="356" y="-90" type="line"/>
      <point x="259" y="-90" type="line"/>
      <point x="-6" y="790" type="line"/>
      <point x="91" y="790" type="line"/>
    </contour>
  </outline>
</glyph>
<glyph name="bracketright" format="1">
  <advance width="325"/>
  <unicode hex="005D"/>
  <outline>
    <contour>
      <point x="250" y="-100" type="line"/>
      <point x="51" y="-100" type="line"/>
      <point x="51" y="-21" type="line"/>
      <point x="157" y="-21" type="line"/>
      <point x="157" y="621" type="line"/>
      <point x="51" y="621" type="line"/>
      <point x="51" y="700" type="line"/>
      <point x="250" y="700" type="line"/>
    </contour>
  </outline>
</glyph>
<glyph name="asciicircum" format="1">
  <advance width="444"/>
  <unicode hex="005E"/>
  <outline>
    <contour>
      <point x="414" y="382" type="line"/>
      <point x="307" y="382" type="line"/>
      <point x="221" y="584" type="line"/>
      <point x="135" y="382" type="line"/>
      <point x="30" y="382" type="line"/>
      <point x="182" y="700" type="line"/>
      <point x="262" y="700" type="line"/>
    </contour>
  </outline>
</glyph>
<glyph name="grave" format="1">
  <advance width="400"/>
  <unicode hex="0060"/>
  <outline>
    <contour>
      <point x="297" y="595" type="line"/>
      <point x="215" y="595" type="line"/>
      <point x="70" y="755" type="line"/>
      <point x="205" y="755" type="line"/>
    </contour>
  </outline>
</glyph>
<glyph name="a" format="1">
  <advance width="434"/>
  <unicode hex="0061"/>
  <outline>
    <contour>
      <point x="378" y="0" type="line"/>
      <point x="282" y="0" type="line"/>
      <point x="282" y="36" type="line"/>
      <point x="255" y="5"/>
      <point x="221" y="-11"/>
      <point x="174" y="-11" type="curve" smooth="yes"/>
      <point x="97" y="-11"/>
      <point x="31" y="47"/>
      <point x="31" y="165" type="curve" smooth="yes"/>
      <point x="31" y="279"/>
      <point x="102" y="337"/>
      <point x="202" y="337" type="curve" smooth="yes"/>
      <point x="234" y="337"/>
      <point x="261" y="330"/>
      <point x="282" y="320" type="curve"/>
      <point x="282" y="371" type="line" smooth="yes"/>
      <point x="282" y="422"/>
      <point x="265" y="446"/>
      <point x="214" y="446" type="curve" smooth="yes"/>
      <point x="181" y="446"/>
      <point x="151" y="437"/>
      <point x="111" y="413" type="curve"/>
      <point x="70" y="486" type="line"/>
      <point x="118" y="518"/>
      <point x="173" y="536"/>
      <point x="221" y="536" type="curve" smooth="yes"/>
      <point x="334" y="536"/>
      <point x="378" y="496"/>
      <point x="378" y="379" type="curve" smooth="yes"/>
    </contour>
    <contour>
      <point x="282" y="125" type="curve"/>
      <point x="282" y="230" type="line"/>
      <point x="259" y="244"/>
      <point x="239" y="250"/>
      <point x="203" y="250" type="curve" smooth="yes"/>
      <point x="158" y="250"/>
      <point x="127" y="224"/>
      <point x="127" y="167" type="curve" smooth="yes"/>
      <point x="127" y="105"/>
      <point x="152" y="76"/>
      <point x="193" y="76" type="curve" smooth="yes"/>
      <point x="234" y="76"/>
      <point x="264" y="94"/>
    </contour>
  </outline>
</glyph>
<glyph name="c" format="1">
  <advance width="410"/>
  <unicode hex="0063"/>
  <outline>
    <contour>
      <point x="375" y="82" type="line"/>
      <point x="340" y="27"/>
      <point x="298" y="-11"/>
      <point x="222" y="-11" type="curve" smooth="yes"/>
      <point x="113" y="-11"/>
      <point x="39" y="76"/>
      <point x="39" y="260" type="curve" smooth="yes"/>
      <point x="39" y="444"/>
      <point x="109" y="536"/>
      <point x="226" y="536" type="curve" smooth="yes"/>
      <point x="302" y="536"/>
      <point x="344" y="495"/>
      <point x="374" y="444" type="curve"/>
      <point x="305" y="384" type="line"/>
      <point x="278" y="427"/>
      <point x="257" y="444"/>
      <point x="223" y="444" type="curve" smooth="yes"/>
      <point x="162" y="444"/>
      <point x="136" y="377"/>
      <point x="136" y="262" type="curve" smooth="yes"/>
      <point x="136" y="151"/>
      <point x="163" y="81"/>
      <point x="226" y="81" type="curve" smooth="yes"/>
      <point x="258" y="81"/>
      <point x="280" y="98"/>
      <point x="306" y="139" type="curve"/>
    </contour>
  </outline>
</glyph>
<glyph name="e" format="1">
  <advance width="450"/>
  <unicode hex="0065"/>
  <outline>
    <contour>
      <point x="411" y="264" type="curve" smooth="yes"/>
      <point x="411" y="255"/>
      <point x="411" y="240"/>
      <point x="410" y="230" type="curve"/>
      <point x="135" y="230" type="line"/>
      <point x="141" y="126"/>
      <point x="178" y="81"/>
      <point x="234" y="81" type="curve" smooth="yes"/>
      <point x="278" y="81"/>
      <point x="299" y="92"/>
      <point x="329" y="120" type="curve"/>
      <point x="388" y="59" type="line"/>
      <point x="352" y="19"/>
      <point x="299" y="-11"/>
      <point x="232" y="-11" type="curve" smooth="yes"/>
      <point x="107" y="-11"/>
      <point x="39" y="95"/>
      <point x="39" y="260" type="curve" smooth="yes"/>
      <point x="39" y="444"/>
      <point x="115" y="536"/>
      <point x="226" y="536" type="curve" smooth="yes"/>
      <point x="331" y="536"/>
      <point x="411" y="447"/>
    </contour>
    <contour>
      <point x="313" y="313" type="line"/>
      <point x="310" y="391"/>
      <point x="278" y="446"/>
      <point x="224" y="446" type="curve" smooth="yes"/>
      <point x="175" y="446"/>
      <point x="144" y="403"/>
      <point x="136" y="313" type="curve"/>
    </contour>
  </outline>
</glyph>
<glyph name="f" format="1">
  <advance width="291"/>
  <unicode hex="0066"/>
  <outline>
    <contour>
      <point x="278" y="636" type="line"/>
      <point x="266" y="640"/>
      <point x="252" y="642"/>
      <point x="238" y="642" type="curve" smooth="yes"/>
      <point x="191" y="642"/>
      <point x="177" y="625"/>
      <point x="177" y="586" type="curve" smooth="yes"/>
      <point x="177" y="525" type="line"/>
      <point x="263" y="525" type="line"/>
      <point x="263" y="435" type="line"/>
      <point x="177" y="435" type="line"/>
      <point x="177" y="0" type="line"/>
      <point x="81" y="0" type="line"/>
      <point x="81" y="435" type="line"/>
      <point x="28" y="435" type="line"/>
      <point x="28" y="525" type="line"/>
      <point x="81" y="525" type="line"/>
      <point x="81" y="599" type="line" smooth="yes"/>
      <point x="81" y="685"/>
      <point x="131" y="726"/>
      <point x="199" y="726" type="curve" smooth="yes"/>
      <point x="232" y="726"/>
      <point x="256" y="723"/>
      <point x="278" y="716" type="curve"/>
    </contour>
  </outline>
</glyph>
<glyph name="g" format="1">
  <advance width="448"/>
  <unicode hex="0067"/>
  <outline>
    <contour>
      <point x="391" y="46" type="line" smooth="yes"/>
      <point x="391" y="-104"/>
      <point x="336" y="-176"/>
      <point x="177" y="-193" type="curve"/>
      <point x="150" y="-116" type="line"/>
      <point x="266" y="-101"/>
      <point x="295" y="-67"/>
      <point x="295" y="32" type="curve" smooth="yes"/>
      <point x="295" y="36" type="line"/>
      <point x="270" y="8"/>
      <point x="244" y="-11"/>
      <point x="197" y="-11" type="curve" smooth="yes"/>
      <point x="102" y="-11"/>
      <point x="39" y="59"/>
      <point x="39" y="268" type="curve" smooth="yes"/>
      <point x="39" y="443"/>
      <point x="100" y="536"/>
      <point x="204" y="536" type="curve" smooth="yes"/>
      <point x="241" y="536"/>
      <point x="269" y="524"/>
      <point x="295" y="497" type="curve"/>
      <point x="295" y="525" type="line"/>
      <point x="391" y="525" type="line"/>
    </contour>
    <contour>
      <point x="295" y="127" type="curve"/>
      <point x="295" y="399" type="line"/>
      <point x="274" y="431"/>
      <point x="242" y="446"/>
      <point x="212" y="446" type="curve" smooth="yes"/>
      <point x="162" y="446"/>
      <point x="136" y="397"/>
      <point x="136" y="273" type="curve" smooth="yes"/>
      <point x="136" y="136"/>
      <point x="162" y="79"/>
      <point x="217" y="79" type="curve" smooth="yes"/>
      <point x="249" y="79"/>
      <point x="278" y="99"/>
    </contour>
  </outline>
</glyph>
<glyph name="i" format="1">
  <advance width="220"/>
  <unicode hex="0069"/>
  <outline>
    <contour>
      <point x="169" y="666" type="curve" smooth="yes"/>
      <point x="169" y="634"/>
      <point x="142" y="607"/>
      <point x="110" y="607" type="curve" smooth="yes"/>
      <point x="77" y="607"/>
      <point x="50" y="634"/>
      <point x="50" y="666" type="curve" smooth="yes"/>
      <point x="50" y="699"/>
      <point x="77" y="726"/>
      <point x="110" y="726" type="curve" smooth="yes"/>
      <point x="142" y="726"/>
      <point x="169" y="699"/>
    </contour>
    <contour>
      <point x="158" y="0" type="line"/>
      <point x="62" y="0" type="line"/>
      <point x="62" y="525" type="line"/>
      <point x="158" y="525" type="line"/>
    </contour>
  </outline>
</glyph>
<glyph name="j" format="1">
  <advance width="220"/>
  <unicode hex="006A"/>
  <outline>
    <contour>
      <point x="169" y="666" type="curve" smooth="yes"/>
      <point x="169" y="634"/>
      <point x="142" y="607"/>
      <point x="110" y="607" type="curve" smooth="yes"/>
      <point x="77" y="607"/>
      <point x="50" y="634"/>
      <point x="50" y="666" type="curve" smooth="yes"/>
      <point x="50" y="699"/>
      <point x="77" y="726"/>
      <point x="110" y="726" type="curve" smooth="yes"/>
      <point x="142" y="726"/>
      <point x="169" y="699"/>
    </contour>
    <contour>
      <point x="158" y="19" type="line" smooth="yes"/>
      <point x="158" y="-115"/>
      <point x="104" y="-175"/>
      <point x="-16" y="-193" type="curve"/>
      <point x="-41" y="-115" type="line"/>
      <point x="36" y="-97"/>
      <point x="62" y="-66"/>
      <point x="62" y="13" type="curve" smooth="yes"/>
      <point x="62" y="525" type="line"/>
      <point x="158" y="525" type="line"/>
    </contour>
  </outline>
</glyph>
<glyph name="k" format="1">
  <advance width="424"/>
  <unicode hex="006B"/>
  <outline>
    <contour>
      <point x="397" y="0" type="line"/>
      <point x="292" y="0" type="line"/>
      <point x="205" y="245" type="line"/>
      <point x="153" y="162" type="line"/>
      <point x="153" y="0" type="line"/>
      <point x="57" y="0" type="line"/>
      <point x="57" y="679" type="line"/>
      <point x="153" y="729" type="line"/>
      <point x="153" y="414" type="line" smooth="yes"/>
      <point x="153" y="381"/>
      <point x="152" y="327"/>
      <point x="151" y="301" type="curve"/>
      <point x="161" y="322"/>
      <point x="181" y="358"/>
      <point x="194" y="382" type="curve" smooth="yes"/>
      <point x="273" y="525" type="line"/>
      <point x="382" y="525" type="line"/>
      <point x="269" y="343" type="line"/>
    </contour>
  </outline>
</glyph>
<glyph name="l" format="1">
  <advance width="220"/>
  <unicode hex="006C"/>
  <outline>
    <contour>
      <point x="158" y="0" type="line"/>
      <point x="62" y="0" type="line"/>
      <point x="62" y="679" type="line"/>
      <point x="158" y="729" type="line"/>
    </contour>
  </outline>
</glyph>
<glyph name="m" format="1">
  <advance width="665"/>
  <unicode hex="006D"/>
  <outline>
    <contour>
      <point x="611" y="0" type="line"/>
      <point x="515" y="0" type="line"/>
      <point x="515" y="323" type="line" smooth="yes"/>
      <point x="515" y="410"/>
      <point x="508" y="445"/>
      <point x="460" y="445" type="curve" smooth="yes"/>
      <point x="430" y="445"/>
      <point x="401" y="428"/>
      <point x="382" y="397" type="curve"/>
      <point x="382" y="0" type="line"/>
      <point x="286" y="0" type="line"/>
      <point x="286" y="323" type="line" smooth="yes"/>
      <point x="286" y="410"/>
      <point x="279" y="445"/>
      <point x="231" y="445" type="curve" smooth="yes"/>
      <point x="201" y="445"/>
      <point x="172" y="428"/>
      <point x="153" y="397" type="curve"/>
      <point x="153" y="0" type="line"/>
      <point x="57" y="0" type="line"/>
      <point x="57" y="525" type="line"/>
      <point x="153" y="525" type="line"/>
      <point x="153" y="489" type="line"/>
      <point x="174" y="516"/>
      <point x="206" y="536"/>
      <point x="251" y="536" type="curve" smooth="yes"/>
      <point x="303" y="536"/>
      <point x="335" y="518"/>
      <point x="357" y="480" type="curve"/>
      <point x="394" y="522"/>
      <point x="433" y="536"/>
      <point x="480" y="536" type="curve" smooth="yes"/>
      <point x="585" y="536"/>
      <point x="611" y="468"/>
      <point x="611" y="329" type="curve" smooth="yes"/>
    </contour>
  </outline>
</glyph>
<glyph name="n" format="1">
  <advance width="446"/>
  <unicode hex="006E"/>
  <outline>
    <contour>
      <point x="392" y="0" type="line"/>
      <point x="296" y="0" type="line"/>
      <point x="296" y="323" type="line" smooth="yes"/>
      <point x="296" y="410"/>
      <point x="279" y="445"/>
      <point x="231" y="445" type="curve" smooth="yes"/>
      <point x="201" y="445"/>
      <point x="172" y="428"/>
      <point x="153" y="397" type="curve"/>
      <point x="153" y="0" type="line"/>
      <point x="57" y="0" type="line"/>
      <point x="57" y="525" type="line"/>
      <point x="153" y="525" type="line"/>
      <point x="153" y="489" type="line"/>
      <point x="174" y="516"/>
      <point x="210" y="536"/>
      <point x="255" y="536" type="curve" smooth="yes"/>
      <point x="356" y="536"/>
      <point x="392" y="471"/>
      <point x="392" y="339" type="curve" smooth="yes"/>
    </contour>
  </outline>
</glyph>
<glyph name="o" format="1">
  <advance width="456"/>
  <unicode hex="006F"/>
  <outline>
    <contour>
      <point x="417" y="264" type="curve" smooth="yes"/>
      <point x="417" y="80"/>
      <point x="341" y="-11"/>
      <point x="225" y="-11" type="curve" smooth="yes"/>
      <point x="116" y="-11"/>
      <point x="39" y="76"/>
      <point x="39" y="260" type="curve" smooth="yes"/>
      <point x="39" y="444"/>
      <point x="112" y="536"/>
      <point x="229" y="536" type="curve" smooth="yes"/>
      <point x="340" y="536"/>
      <point x="417" y="447"/>
    </contour>
    <contour>
      <point x="320" y="262" type="curve" smooth="yes"/>
      <point x="320" y="381"/>
      <point x="287" y="444"/>
      <point x="227" y="444" type="curve" smooth="yes"/>
      <point x="167" y="444"/>
      <point x="136" y="382"/>
      <point x="136" y="262" type="curve" smooth="yes"/>
      <point x="136" y="142"/>
      <point x="168" y="81"/>
      <point x="228" y="81" type="curve" smooth="yes"/>
      <point x="288" y="81"/>
      <point x="320" y="153"/>
    </contour>
  </outline>
</glyph>
<glyph name="p" format="1">
  <advance width="448"/>
  <unicode hex="0070"/>
  <outline>
    <contour>
      <point x="409" y="257" type="curve" smooth="yes"/>
      <point x="409" y="82"/>
      <point x="348" y="-11"/>
      <point x="244" y="-11" type="curve" smooth="yes"/>
      <point x="207" y="-11"/>
      <point x="179" y="1"/>
      <point x="153" y="28" type="curve"/>
      <point x="153" y="-143" type="line"/>
      <point x="57" y="-193" type="line"/>
      <point x="57" y="525" type="line"/>
      <point x="153" y="525" type="line"/>
      <point x="153" y="490" type="line"/>
      <point x="178" y="517"/>
      <point x="204" y="536"/>
      <point x="251" y="536" type="curve" smooth="yes"/>
      <point x="346" y="536"/>
      <point x="409" y="466"/>
    </contour>
    <contour>
      <point x="312" y="252" type="curve" smooth="yes"/>
      <point x="312" y="389"/>
      <point x="286" y="446"/>
      <point x="231" y="446" type="curve" smooth="yes"/>
      <point x="199" y="446"/>
      <point x="170" y="426"/>
      <point x="153" y="398" type="curve"/>
      <point x="153" y="126" type="line"/>
      <point x="174" y="94"/>
      <point x="206" y="79"/>
      <point x="236" y="79" type="curve" smooth="yes"/>
      <point x="286" y="79"/>
      <point x="312" y="128"/>
    </contour>
  </outline>
</glyph>
<glyph name="r" format="1">
  <advance width="336"/>
  <unicode hex="0072"/>
  <outline>
    <contour>
      <point x="318" y="518" type="curve"/>
      <point x="295" y="422" type="line"/>
      <point x="276" y="433"/>
      <point x="258" y="438"/>
      <point x="228" y="438" type="curve" smooth="yes"/>
      <point x="201" y="438"/>
      <point x="175" y="429"/>
      <point x="153" y="397" type="curve"/>
      <point x="153" y="0" type="line"/>
      <point x="57" y="0" type="line"/>
      <point x="57" y="525" type="line"/>
      <point x="153" y="525" type="line"/>
      <point x="153" y="489" type="line"/>
      <point x="174" y="516"/>
      <point x="207" y="536"/>
      <point x="246" y="536" type="curve" smooth="yes"/>
      <point x="279" y="536"/>
      <point x="302" y="528"/>
    </contour>
  </outline>
</glyph>
<glyph name="s" format="1">
  <advance width="389"/>
  <unicode hex="0073"/>
  <outline>
    <contour>
      <point x="351" y="144" type="curve" smooth="yes"/>
      <point x="351" y="44"/>
      <point x="290" y="-11"/>
      <point x="188" y="-11" type="curve" smooth="yes"/>
      <point x="132" y="-11"/>
      <point x="73" y="11"/>
      <point x="27" y="45" type="curve"/>
      <point x="64" y="125" type="line"/>
      <point x="112" y="95"/>
      <point x="151" y="80"/>
      <point x="186" y="80" type="curve" smooth="yes"/>
      <point x="229" y="80"/>
      <point x="255" y="103"/>
      <point x="255" y="137" type="curve" smooth="yes"/>
      <point x="255" y="174"/>
      <point x="227" y="193"/>
      <point x="154" y="235" type="curve" smooth="yes"/>
      <point x="89" y="273"/>
      <point x="45" y="307"/>
      <point x="45" y="390" type="curve" smooth="yes"/>
      <point x="45" y="481"/>
      <point x="100" y="536"/>
      <point x="195" y="536" type="curve" smooth="yes"/>
      <point x="248" y="536"/>
      <point x="299" y="517"/>
      <point x="338" y="487" type="curve"/>
      <point x="299" y="406" type="line"/>
      <point x="265" y="430"/>
      <point x="226" y="445"/>
      <point x="193" y="445" type="curve" smooth="yes"/>
      <point x="157" y="445"/>
      <point x="141" y="425"/>
      <point x="141" y="399" type="curve" smooth="yes"/>
      <point x="141" y="367"/>
      <point x="156" y="351"/>
      <point x="227" y="310" type="curve" smooth="yes"/>
      <point x="306" y="264"/>
      <point x="351" y="230"/>
    </contour>
  </outline>
</glyph>
<glyph name="t" format="1">
  <advance width="319"/>
  <unicode hex="0074"/>
  <outline>
    <contour>
      <point x="276" y="102" type="curve"/>
      <point x="265" y="13" type="line"/>
      <point x="242" y="-2"/>
      <point x="215" y="-11"/>
      <point x="179" y="-11" type="curve" smooth="yes"/>
      <point x="109" y="-11"/>
      <point x="78" y="38"/>
      <point x="78" y="123" type="curve" smooth="yes"/>
      <point x="78" y="435" type="line"/>
      <point x="21" y="435" type="line"/>
      <point x="21" y="525" type="line"/>
      <point x="78" y="525" type="line"/>
      <point x="78" y="678" type="line"/>
      <point x="174" y="729" type="line"/>
      <point x="174" y="525" type="line"/>
      <point x="275" y="525" type="line"/>
      <point x="275" y="435" type="line"/>
      <point x="174" y="435" type="line"/>
      <point x="174" y="132" type="line" smooth="yes"/>
      <point x="174" y="95"/>
      <point x="188" y="80"/>
      <point x="214" y="80" type="curve" smooth="yes"/>
      <point x="239" y="80"/>
      <point x="262" y="90"/>
    </contour>
  </outline>
</glyph>
<glyph name="u" format="1">
  <advance width="446"/>
  <unicode hex="0075"/>
  <outline>
    <contour>
      <point x="389" y="0" type="line"/>
      <point x="293" y="0" type="line"/>
      <point x="293" y="36" type="line"/>
      <point x="272" y="9"/>
      <point x="236" y="-11"/>
      <point x="191" y="-11" type="curve" smooth="yes"/>
      <point x="90" y="-11"/>
      <point x="54" y="54"/>
      <point x="54" y="186" type="curve" smooth="yes"/>
      <point x="54" y="525" type="line"/>
      <point x="150" y="525" type="line"/>
      <point x="150" y="202" type="line" smooth="yes"/>
      <point x="150" y="115"/>
      <point x="167" y="80"/>
      <point x="215" y="80" type="curve" smooth="yes"/>
      <point x="245" y="80"/>
      <point x="274" y="97"/>
      <point x="293" y="128" type="curve"/>
      <point x="293" y="525" type="line"/>
      <point x="389" y="525" type="line"/>
    </contour>
  </outline>
</glyph>
<glyph name="v" format="1">
  <advance width="416"/>
  <unicode hex="0076"/>
  <outline>
    <contour>
      <point x="396" y="525" type="line"/>
      <point x="265" y="0" type="line"/>
      <point x="154" y="0" type="line"/>
      <point x="22" y="525" type="line"/>
      <point x="120" y="525" type="line"/>
      <point x="184" y="242" type="line" smooth="yes"/>
      <point x="192" y="208"/>
      <point x="207" y="135"/>
      <point x="211" y="110" type="curve"/>
      <point x="215" y="135"/>
      <point x="230" y="210"/>
      <point x="237" y="244" type="curve" smooth="yes"/>
      <point x="298" y="525" type="line"/>
    </contour>
  </outline>
</glyph>
<glyph name="w" format="1">
  <advance width="597"/>
  <unicode hex="0077"/>
  <outline>
    <contour>
      <point x="573" y="525" type="line"/>
      <point x="465" y="0" type="line"/>
      <point x="375" y="0" type="line"/>
      <point x="321" y="253" type="line" smooth="yes"/>
      <point x="314" y="286"/>
      <point x="301" y="357"/>
      <point x="297" y="382" type="curve"/>
      <point x="293" y="357"/>
      <point x="280" y="285"/>
      <point x="273" y="250" type="curve" smooth="yes"/>
      <point x="220" y="0" type="line"/>
      <point x="130" y="0" type="line"/>
      <point x="24" y="525" type="line"/>
      <point x="116" y="525" type="line"/>
      <point x="155" y="301" type="line" smooth="yes"/>
      <point x="160" y="270"/>
      <point x="175" y="173"/>
      <point x="178" y="148" type="curve"/>
      <point x="182" y="174"/>
      <point x="200" y="273"/>
      <point x="207" y="303" type="curve" smooth="yes"/>
      <point x="255" y="525" type="line"/>
      <point x="342" y="525" type="line"/>
      <point x="392" y="303" type="line" smooth="yes"/>
      <point x="399" y="273"/>
      <point x="418" y="174"/>
      <point x="422" y="148" type="curve"/>
      <point x="425" y="173"/>
      <point x="439" y="271"/>
      <point x="444" y="301" type="curve" smooth="yes"/>
      <point x="481" y="525" type="line"/>
    </contour>
  </outline>
</glyph>
<glyph name="x" format="1">
  <advance width="441"/>
  <unicode hex="0078"/>
  <outline>
    <contour>
      <point x="414" y="0" type="line"/>
      <point x="305" y="0" type="line"/>
      <point x="257" y="111" type="line" smooth="yes"/>
      <point x="247" y="135"/>
      <point x="230" y="180"/>
      <point x="222" y="201" type="curve"/>
      <point x="214" y="180"/>
      <point x="198" y="140"/>
      <point x="184" y="108" type="curve" smooth="yes"/>
      <point x="136" y="0" type="line"/>
      <point x="27" y="0" type="line"/>
      <point x="161" y="274" type="line"/>
      <point x="38" y="525" type="line"/>
      <point x="146" y="525" type="line"/>
      <point x="184" y="437" type="line" smooth="yes"/>
      <point x="194" y="413"/>
      <point x="213" y="368"/>
      <point x="220" y="347" type="curve"/>
      <point x="227" y="368"/>
      <point x="243" y="409"/>
      <point x="257" y="440" type="curve" smooth="yes"/>
      <point x="294" y="525" type="line"/>
      <point x="403" y="525" type="line"/>
      <point x="281" y="274" type="line"/>
    </contour>
  </outline>
</glyph>
<glyph name="y" format="1">
  <advance width="434"/>
  <unicode hex="0079"/>
  <outline>
    <contour>
      <point x="412" y="525" type="line"/>
      <point x="205" y="-185" type="line"/>
      <point x="111" y="-185" type="line"/>
      <point x="168" y="0" type="line"/>
      <point x="22" y="525" type="line"/>
      <point x="124" y="525" type="line"/>
      <point x="185" y="276" type="line" smooth="yes"/>
      <point x="195" y="236"/>
      <point x="211" y="160"/>
      <point x="216" y="133" type="curve"/>
      <point x="221" y="160"/>
      <point x="238" y="237"/>
      <point x="248" y="277" type="curve" smooth="yes"/>
      <point x="310" y="525" type="line"/>
    </contour>
  </outline>
</glyph>
<glyph name="z" format="1">
  <advance width="407"/>
  <unicode hex="007A"/>
  <outline>
    <contour>
      <point x="361" y="0" type="line"/>
      <point x="36" y="0" type="line"/>
      <point x="36" y="82" type="line"/>
      <point x="211" y="363" type="line" smooth="yes"/>
      <point x="230" y="393"/>
      <point x="247" y="421"/>
      <point x="260" y="437" type="curve"/>
      <point x="241" y="436"/>
      <point x="193" y="436"/>
      <point x="167" y="436" type="curve" smooth="yes"/>
      <point x="53" y="436" type="line"/>
      <point x="53" y="525" type="line"/>
      <point x="361" y="525" type="line"/>
      <point x="361" y="444" type="line"/>
      <point x="191" y="162" type="line" smooth="yes"/>
      <point x="173" y="132"/>
      <point x="155" y="104"/>
      <point x="142" y="88" type="curve"/>
      <point x="161" y="89"/>
      <point x="209" y="89"/>
      <point x="235" y="89" type="curve" smooth="yes"/>
      <point x="361" y="89" type="line"/>
    </contour>
  </outline>
</glyph>
<glyph name="braceleft" format="1">
  <advance width="345"/>
  <unicode hex="007B"/>
  <outline>
    <contour>
      <point x="309" y="-110" type="line"/>
      <point x="147" y="-110"/>
      <point x="107" y="-38"/>
      <point x="107" y="101" type="curve" smooth="yes"/>
      <point x="107" y="169" type="line" smooth="yes"/>
      <point x="107" y="240"/>
      <point x="87" y="258"/>
      <point x="57" y="258" type="curve" smooth="yes"/>
      <point x="31" y="258" type="line"/>
      <point x="31" y="342" type="line"/>
      <point x="57" y="342" type="line" smooth="yes"/>
      <point x="87" y="342"/>
      <point x="107" y="360"/>
      <point x="107" y="431" type="curve" smooth="yes"/>
      <point x="107" y="500" type="line" smooth="yes"/>
      <point x="107" y="639"/>
      <point x="147" y="711"/>
      <point x="309" y="711" type="curve"/>
      <point x="309" y="641" type="line"/>
      <point x="219" y="631"/>
      <point x="204" y="593"/>
      <point x="204" y="511" type="curve" smooth="yes"/>
      <point x="204" y="456" type="line" smooth="yes"/>
      <point x="204" y="362"/>
      <point x="184" y="321"/>
      <point x="124" y="300" type="curve"/>
      <point x="184" y="279"/>
      <point x="204" y="238"/>
      <point x="204" y="144" type="curve" smooth="yes"/>
      <point x="204" y="90" type="line" smooth="yes"/>
      <point x="204" y="8"/>
      <point x="219" y="-30"/>
      <point x="309" y="-40" type="curve"/>
    </contour>
  </outline>
</glyph>
<glyph name="bar" format="1">
  <advance width="246"/>
  <unicode hex="007C"/>
  <outline>
    <contour>
      <point x="168" y="-185" type="line"/>
      <point x="78" y="-185" type="line"/>
      <point x="78" y="800" type="line"/>
      <point x="168" y="800" type="line"/>
    </contour>
  </outline>
</glyph>
<glyph name="braceright" format="1">
  <advance width="345"/>
  <unicode hex="007D"/>
  <outline>
    <contour>
      <point x="314" y="259" type="line"/>
      <point x="288" y="259" type="line" smooth="yes"/>
      <point x="258" y="259"/>
      <point x="238" y="241"/>
      <point x="238" y="170" type="curve" smooth="yes"/>
      <point x="238" y="101" type="line" smooth="yes"/>
      <point x="238" y="-38"/>
      <point x="198" y="-110"/>
      <point x="36" y="-110" type="curve"/>
      <point x="36" y="-40" type="line"/>
      <point x="126" y="-30"/>
      <point x="141" y="8"/>
      <point x="141" y="90" type="curve" smooth="yes"/>
      <point x="141" y="145" type="line" smooth="yes"/>
      <point x="141" y="239"/>
      <point x="161" y="280"/>
      <point x="221" y="301" type="curve"/>
      <point x="161" y="322"/>
      <point x="141" y="363"/>
      <point x="141" y="457" type="curve" smooth="yes"/>
      <point x="141" y="511" type="line" smooth="yes"/>
      <point x="141" y="593"/>
      <point x="126" y="631"/>
      <point x="36" y="641" type="curve"/>
      <point x="36" y="711" type="line"/>
      <point x="198" y="711"/>
      <point x="238" y="639"/>
      <point x="238" y="500" type="curve" smooth="yes"/>
      <point x="238" y="432" type="line" smooth="yes"/>
      <point x="238" y="361"/>
      <point x="258" y="343"/>
      <point x="288" y="343" type="curve" smooth="yes"/>
      <point x="314" y="343" type="line"/>
    </contour>
  </outline>
</glyph>
<glyph name="exclamdown" format="1">
  <advance width="248"/>
  <unicode hex="00A1"/>
  <outline>
    <contour>
      <point x="192" y="643" type="curve" smooth="yes"/>
      <point x="192" y="605"/>
      <point x="162" y="574"/>
      <point x="124" y="574" type="curve" smooth="yes"/>
      <point x="86" y="574"/>
      <point x="56" y="605"/>
      <point x="56" y="643" type="curve" smooth="yes"/>
      <point x="56" y="681"/>
      <point x="86" y="711"/>
      <point x="124" y="711" type="curve" smooth="yes"/>
      <point x="162" y="711"/>
      <point x="192" y="681"/>
    </contour>
    <contour>
      <point x="173" y="0" type="line"/>
      <point x="75" y="0" type="line"/>
      <point x="75" y="348" type="line"/>
      <point x="91" y="498" type="line"/>
      <point x="157" y="498" type="line"/>
      <point x="173" y="348" type="line"/>
    </contour>
  </outline>
</glyph>
<glyph name="cent" format="1">
  <advance width="410"/>
  <unicode hex="00A2"/>
  <outline>
    <contour>
      <point x="375" y="176" type="line"/>
      <point x="348" y="133"/>
      <point x="314" y="101"/>
      <point x="267" y="88" type="curve"/>
      <point x="267" y="-11" type="line"/>
      <point x="168" y="-11" type="line"/>
      <point x="168" y="91" type="line"/>
      <point x="89" y="116"/>
      <point x="39" y="202"/>
      <point x="39" y="354" type="curve" smooth="yes"/>
      <point x="39" y="505"/>
      <point x="86" y="594"/>
      <point x="168" y="621" type="curve"/>
      <point x="168" y="711" type="line"/>
      <point x="267" y="711" type="line"/>
      <point x="267" y="625" type="line"/>
      <point x="318" y="614"/>
      <point x="350" y="579"/>
      <point x="374" y="538" type="curve"/>
      <point x="306" y="479" type="line"/>
      <point x="281" y="520"/>
      <point x="257" y="541"/>
      <point x="223" y="541" type="curve" smooth="yes"/>
      <point x="162" y="541"/>
      <point x="136" y="471"/>
      <point x="136" y="356" type="curve" smooth="yes"/>
      <point x="136" y="245"/>
      <point x="163" y="172"/>
      <point x="226" y="172" type="curve" smooth="yes"/>
      <point x="258" y="172"/>
      <point x="281" y="193"/>
      <point x="306" y="233" type="curve"/>
    </contour>
  </outline>
</glyph>
<glyph name="sterling" format="1">
  <advance width="469"/>
  <unicode hex="00A3"/>
  <outline>
    <contour>
      <point x="446" y="636" type="curve"/>
      <point x="386" y="563" type="line"/>
      <point x="339" y="603"/>
      <point x="316" y="613"/>
      <point x="264" y="613" type="curve" smooth="yes"/>
      <point x="215" y="613"/>
      <point x="185" y="581"/>
      <point x="185" y="533" type="curve" smooth="yes"/>
      <point x="185" y="498"/>
      <point x="196" y="465"/>
      <point x="209" y="434" type="curve" smooth="yes"/>
      <point x="219" y="412"/>
      <point x="227" y="392"/>
      <point x="232" y="370" type="curve"/>
      <point x="346" y="370" type="line"/>
      <point x="346" y="283" type="line"/>
      <point x="237" y="283" type="line"/>
      <point x="233" y="202"/>
      <point x="210" y="154"/>
      <point x="165" y="89" type="curve"/>
      <point x="432" y="89" type="line"/>
      <point x="432" y="0" type="line"/>
      <point x="60" y="0" type="line"/>
      <point x="60" y="102" type="line"/>
      <point x="122" y="169"/>
      <point x="140" y="213"/>
      <point x="143" y="283" type="curve"/>
      <point x="60" y="283" type="line"/>
      <point x="60" y="370" type="line"/>
      <point x="133" y="370" type="line"/>
      <point x="127" y="386"/>
      <point x="120" y="403"/>
      <point x="112" y="420" type="curve" smooth="yes"/>
      <point x="97" y="450"/>
      <point x="85" y="493"/>
      <point x="85" y="534" type="curve" smooth="yes"/>
      <point x="85" y="643"/>
      <point x="152" y="711"/>
      <point x="266" y="711" type="curve" smooth="yes"/>
      <point x="345" y="711"/>
      <point x="390" y="689"/>
    </contour>
  </outline>
</glyph>
<glyph name="yen" format="1">
  <advance width="463"/>
  <unicode hex="00A5"/>
  <outline>
    <contour>
      <point x="441" y="700" type="line"/>
      <point x="281" y="298" type="line"/>
      <point x="281" y="210" type="line"/>
      <point x="383" y="210" type="line"/>
      <point x="383" y="121" type="line"/>
      <point x="281" y="121" type="line"/>
      <point x="281" y="0" type="line"/>
      <point x="187" y="0" type="line"/>
      <point x="187" y="121" type="line"/>
      <point x="85" y="121" type="line"/>
      <point x="85" y="210" type="line"/>
      <point x="187" y="210" type="line"/>
      <point x="187" y="295" type="line"/>
      <point x="22" y="700" type="line"/>
      <point x="132" y="700" type="line"/>
      <point x="184" y="554" type="line" smooth="yes"/>
      <point x="201" y="507"/>
      <point x="226" y="433"/>
      <point x="235" y="398" type="curve"/>
      <point x="244" y="433"/>
      <point x="268" y="507"/>
      <point x="285" y="555" type="curve" smooth="yes"/>
      <point x="335" y="700" type="line"/>
    </contour>
  </outline>
</glyph>
<glyph name="section" format="1">
  <advance width="507"/>
  <unicode hex="00A7"/>
  <outline>
    <contour>
      <point x="462" y="261" type="curve" smooth="yes"/>
      <point x="462" y="185"/>
      <point x="420" y="141"/>
      <point x="369" y="111" type="curve"/>
      <point x="403" y="81"/>
      <point x="420" y="47"/>
      <point x="420" y="-1" type="curve" smooth="yes"/>
      <point x="420" y="-98"/>
      <point x="358" y="-164"/>
      <point x="244" y="-164" type="curve" smooth="yes"/>
      <point x="177" y="-164"/>
      <point x="129" y="-144"/>
      <point x="79" y="-107" type="curve"/>
      <point x="132" y="-31" type="line"/>
      <point x="172" y="-60"/>
      <point x="206" y="-71"/>
      <point x="247" y="-71" type="curve" smooth="yes"/>
      <point x="289" y="-71"/>
      <point x="316" y="-49"/>
      <point x="316" y="-7" type="curve" smooth="yes"/>
      <point x="316" y="29"/>
      <point x="293" y="50"/>
      <point x="210" y="91" type="curve" smooth="yes"/>
      <point x="96" y="147"/>
      <point x="45" y="187"/>
      <point x="45" y="286" type="curve" smooth="yes"/>
      <point x="45" y="362"/>
      <point x="87" y="406"/>
      <point x="138" y="436" type="curve"/>
      <point x="104" y="466"/>
      <point x="87" y="500"/>
      <point x="87" y="548" type="curve" smooth="yes"/>
      <point x="87" y="645"/>
      <point x="149" y="711"/>
      <point x="263" y="711" type="curve" smooth="yes"/>
      <point x="330" y="711"/>
      <point x="378" y="691"/>
      <point x="428" y="654" type="curve"/>
      <point x="375" y="578" type="line"/>
      <point x="335" y="607"/>
      <point x="301" y="618"/>
      <point x="260" y="618" type="curve" smooth="yes"/>
      <point x="218" y="618"/>
      <point x="191" y="596"/>
      <point x="191" y="554" type="curve" smooth="yes"/>
      <point x="191" y="518"/>
      <point x="214" y="497"/>
      <point x="297" y="456" type="curve" smooth="yes"/>
      <point x="411" y="400"/>
      <point x="462" y="360"/>
    </contour>
    <contour>
      <point x="359" y="252" type="curve" smooth="yes"/>
      <point x="359" y="304"/>
      <point x="335" y="327"/>
      <point x="249" y="369" type="curve" smooth="yes"/>
      <point x="238" y="375"/>
      <point x="227" y="380"/>
      <point x="217" y="385" type="curve"/>
      <point x="175" y="365"/>
      <point x="148" y="338"/>
      <point x="148" y="295" type="curve" smooth="yes"/>
      <point x="148" y="243"/>
      <point x="172" y="220"/>
      <point x="258" y="178" type="curve" smooth="yes"/>
      <point x="269" y="172"/>
      <point x="280" y="167"/>
      <point x="290" y="162" type="curve"/>
      <point x="332" y="182"/>
      <point x="359" y="209"/>
    </contour>
  </outline>
</glyph>
<glyph name="dieresis" format="1">
  <advance width="400"/>
  <unicode hex="00A8"/>
  <outline>
    <contour>
      <point x="351" y="657" type="curve" smooth="yes"/>
      <point x="351" y="624"/>
      <point x="322" y="595"/>
      <point x="289" y="595" type="curve" smooth="yes"/>
      <point x="255" y="595"/>
      <point x="226" y="624"/>
      <point x="226" y="657" type="curve" smooth="yes"/>
      <point x="226" y="691"/>
      <point x="255" y="720"/>
      <point x="289" y="720" type="curve" smooth="yes"/>
      <point x="322" y="720"/>
      <point x="351" y="691"/>
    </contour>
    <contour>
      <point x="174" y="657" type="curve" smooth="yes"/>
      <point x="174" y="624"/>
      <point x="145" y="595"/>
      <point x="112" y="595" type="curve" smooth="yes"/>
      <point x="78" y="595"/>
      <point x="49" y="624"/>
      <point x="49" y="657" type="curve" smooth="yes"/>
      <point x="49" y="691"/>
      <point x="78" y="720"/>
      <point x="112" y="720" type="curve" smooth="yes"/>
      <point x="145" y="720"/>
      <point x="174" y="691"/>
    </contour>
  </outline>
</glyph>
<glyph name="copyright" format="1">
  <advance width="646"/>
  <unicode hex="00A9"/>
  <outline>
    <contour>
      <point x="601" y="350" type="curve" smooth="yes"/>
      <point x="601" y="131"/>
      <point x="484" y="-11"/>
      <point x="323" y="-11" type="curve" smooth="yes"/>
      <point x="162" y="-11"/>
      <point x="45" y="131"/>
      <point x="45" y="350" type="curve" smooth="yes"/>
      <point x="45" y="569"/>
      <point x="162" y="711"/>
      <point x="323" y="711" type="curve" smooth="yes"/>
      <point x="484" y="711"/>
      <point x="601" y="569"/>
    </contour>
    <contour>
      <point x="543" y="349" type="curve" smooth="yes"/>
      <point x="543" y="533"/>
      <point x="458" y="656"/>
      <point x="323" y="656" type="curve" smooth="yes"/>
      <point x="188" y="656"/>
      <point x="103" y="534"/>
      <point x="103" y="351" type="curve" smooth="yes"/>
      <point x="103" y="167"/>
      <point x="190" y="44"/>
      <point x="325" y="44" type="curve" smooth="yes"/>
      <point x="460" y="44"/>
      <point x="543" y="166"/>
    </contour>
    <contour>
      <point x="428" y="250" type="line"/>
      <point x="416" y="191"/>
      <point x="388" y="148"/>
      <point x="323" y="148" type="curve" smooth="yes"/>
      <point x="237" y="148"/>
      <point x="207" y="239"/>
      <point x="207" y="352" type="curve" smooth="yes"/>
      <point x="207" y="467"/>
      <point x="241" y="556"/>
      <point x="325" y="556" type="curve" smooth="yes"/>
      <point x="391" y="556"/>
      <point x="418" y="516"/>
      <point x="428" y="459" type="curve"/>
      <point x="370" y="445" type="line"/>
      <point x="363" y="479"/>
      <point x="352" y="497"/>
      <point x="323" y="497" type="curve" smooth="yes"/>
      <point x="276" y="497"/>
      <point x="266" y="421"/>
      <point x="266" y="353" type="curve" smooth="yes"/>
      <point x="266" y="282"/>
      <point x="280" y="207"/>
      <point x="327" y="207" type="curve" smooth="yes"/>
      <point x="352" y="207"/>
      <point x="365" y="226"/>
      <point x="375" y="267" type="curve"/>
    </contour>
  </outline>
</glyph>
<glyph name="ordfeminine" format="1">
  <advance width="378"/>
  <unicode hex="00AA"/>
  <outline>
    <contour>
      <point x="323" y="277" type="line"/>
      <point x="245" y="277" type="line"/>
      <point x="245" y="306" type="line"/>
      <point x="224" y="281"/>
      <point x="196" y="268"/>
      <point x="158" y="268" type="curve" smooth="yes"/>
      <point x="96" y="268"/>
      <point x="42" y="315"/>
      <point x="42" y="410" type="curve" smooth="yes"/>
      <point x="42" y="503"/>
      <point x="100" y="550"/>
      <point x="181" y="550" type="curve" smooth="yes"/>
      <point x="207" y="550"/>
      <point x="228" y="544"/>
      <point x="245" y="536" type="curve"/>
      <point x="245" y="577" type="line" smooth="yes"/>
      <point x="245" y="618"/>
      <point x="232" y="638"/>
      <point x="190" y="638" type="curve" smooth="yes"/>
      <point x="164" y="638"/>
      <point x="139" y="631"/>
      <point x="107" y="611" type="curve"/>
      <point x="74" y="670" type="line"/>
      <point x="113" y="696"/>
      <point x="156" y="711"/>
      <point x="194" y="711" type="curve" smooth="yes"/>
      <point x="288" y="711"/>
      <point x="323" y="678"/>
      <point x="323" y="584" type="curve" smooth="yes"/>
    </contour>
    <contour>
      <point x="245" y="378" type="curve"/>
      <point x="245" y="463" type="line"/>
      <point x="227" y="474"/>
      <point x="211" y="479"/>
      <point x="181" y="479" type="curve" smooth="yes"/>
      <point x="145" y="479"/>
      <point x="120" y="458"/>
      <point x="120" y="412" type="curve" smooth="yes"/>
      <point x="120" y="362"/>
      <point x="140" y="338"/>
      <point x="173" y="338" type="curve" smooth="yes"/>
      <point x="207" y="338"/>
      <point x="231" y="353"/>
    </contour>
  </outline>
</glyph>
<glyph name="guillemotleft" format="1">
  <advance width="490"/>
  <unicode hex="00AB"/>
  <outline>
    <contour>
      <point x="445" y="0" type="line"/>
      <point x="347" y="0" type="line"/>
      <point x="212" y="262" type="line"/>
      <point x="347" y="525" type="line"/>
      <point x="445" y="525" type="line"/>
      <point x="315" y="263" type="line"/>
    </contour>
    <contour>
      <point x="253" y="0" type="line"/>
      <point x="155" y="0" type="line"/>
      <point x="20" y="262" type="line"/>
      <point x="155" y="525" type="line"/>
      <point x="253" y="525" type="line"/>
      <point x="123" y="263" type="line"/>
    </contour>
  </outline>
</glyph>
<glyph name="degree" format="1">
  <advance width="400"/>
  <unicode hex="00B0"/>
  <outline>
    <contour>
      <point x="368" y="544" type="curve" smooth="yes"/>
      <point x="368" y="448"/>
      <point x="295" y="375"/>
      <point x="200" y="375" type="curve" smooth="yes"/>
      <point x="106" y="375"/>
      <point x="32" y="448"/>
      <point x="32" y="544" type="curve" smooth="yes"/>
      <point x="32" y="637"/>
      <point x="106" y="711"/>
      <point x="200" y="711" type="curve" smooth="yes"/>
      <point x="295" y="711"/>
      <point x="368" y="637"/>
    </contour>
    <contour>
      <point x="289" y="544" type="curve" smooth="yes"/>
      <point x="289" y="592"/>
      <point x="250" y="633"/>
      <point x="200" y="633" type="curve" smooth="yes"/>
      <point x="151" y="633"/>
      <point x="111" y="592"/>
      <point x="111" y="544" type="curve" smooth="yes"/>
      <point x="111" y="493"/>
      <point x="151" y="453"/>
      <point x="200" y="453" type="curve" smooth="yes"/>
      <point x="250" y="453"/>
      <point x="289" y="493"/>
    </contour>
  </outline>
</glyph>
<glyph name="acute" format="1">
  <advance width="400"/>
  <unicode hex="00B4"/>
  <outline>
    <contour>
      <point x="330" y="755" type="line"/>
      <point x="185" y="595" type="line"/>
      <point x="103" y="595" type="line"/>
      <point x="195" y="755" type="line"/>
    </contour>
  </outline>
</glyph>
<glyph name="paragraph" format="1">
  <advance width="607"/>
  <unicode hex="00B6"/>
  <outline>
    <contour>
      <point x="542" y="-185" type="line"/>
      <point x="447" y="-185" type="line"/>
      <point x="447" y="604" type="line"/>
      <point x="368" y="604" type="line"/>
      <point x="368" y="-185" type="line"/>
      <point x="273" y="-185" type="line"/>
      <point x="273" y="285" type="line"/>
      <point x="238" y="285" type="line" smooth="yes"/>
      <point x="145" y="285"/>
      <point x="42" y="344"/>
      <point x="42" y="489" type="curve" smooth="yes"/>
      <point x="42" y="631"/>
      <point x="138" y="700"/>
      <point x="244" y="700" type="curve" smooth="yes"/>
      <point x="542" y="700" type="line"/>
    </contour>
  </outline>
</glyph>
<glyph name="periodcentered" format="1">
  <advance width="232"/>
  <unicode hex="00B7"/>
  <outline>
    <contour>
      <point x="186" y="367" type="curve" smooth="yes"/>
      <point x="186" y="328"/>
      <point x="155" y="297"/>
      <point x="116" y="297" type="curve" smooth="yes"/>
      <point x="77" y="297"/>
      <point x="46" y="328"/>
      <point x="46" y="367" type="curve" smooth="yes"/>
      <point x="46" y="406"/>
      <point x="77" y="438"/>
      <point x="116" y="438" type="curve" smooth="yes"/>
      <point x="155" y="438"/>
      <point x="186" y="406"/>
    </contour>
  </outline>
</glyph>
<glyph name="cedilla" format="1">
  <advance width="400"/>
  <unicode hex="00B8"/>
  <outline>
    <contour>
      <point x="310" y="-110" type="curve" smooth="yes"/>
      <point x="310" y="-167"/>
      <point x="270" y="-193"/>
      <point x="203" y="-193" type="curve" smooth="yes"/>
      <point x="163" y="-193"/>
      <point x="134" y="-183"/>
      <point x="102" y="-164" type="curve"/>
      <point x="122" y="-132" type="line"/>
      <point x="145" y="-144"/>
      <point x="173" y="-149"/>
      <point x="195" y="-149" type="curve" smooth="yes"/>
      <point x="228" y="-149"/>
      <point x="244" y="-135"/>
      <point x="244" y="-113" type="curve" smooth="yes"/>
      <point x="244" y="-91"/>
      <point x="233" y="-80"/>
      <point x="218" y="-80" type="curve" smooth="yes"/>
      <point x="202" y="-80"/>
      <point x="195" y="-83"/>
      <point x="181" y="-92" type="curve"/>
      <point x="149" y="-79" type="line"/>
      <point x="168" y="12" type="line"/>
      <point x="215" y="12" type="line"/>
      <point x="204" y="-48" type="line"/>
      <point x="214" y="-42"/>
      <point x="227" y="-39"/>
      <point x="246" y="-39" type="curve" smooth="yes"/>
      <point x="281" y="-39"/>
      <point x="310" y="-61"/>
    </contour>
  </outline>
</glyph>
<glyph name="ordmasculine" format="1">
  <advance width="384"/>
  <unicode hex="00BA"/>
  <outline>
    <contour>
      <point x="345" y="491" type="curve" smooth="yes"/>
      <point x="345" y="342"/>
      <point x="283" y="268"/>
      <point x="189" y="268" type="curve" smooth="yes"/>
      <point x="101" y="268"/>
      <point x="39" y="338"/>
      <point x="39" y="487" type="curve" smooth="yes"/>
      <point x="39" y="636"/>
      <point x="98" y="711"/>
      <point x="193" y="711" type="curve" smooth="yes"/>
      <point x="283" y="711"/>
      <point x="345" y="639"/>
    </contour>
    <contour>
      <point x="266" y="489" type="curve" smooth="yes"/>
      <point x="266" y="585"/>
      <point x="240" y="636"/>
      <point x="191" y="636" type="curve" smooth="yes"/>
      <point x="142" y="636"/>
      <point x="117" y="586"/>
      <point x="117" y="489" type="curve" smooth="yes"/>
      <point x="117" y="392"/>
      <point x="143" y="342"/>
      <point x="192" y="342" type="curve" smooth="yes"/>
      <point x="240" y="342"/>
      <point x="266" y="401"/>
    </contour>
  </outline>
</glyph>
<glyph name="guillemotright" format="1">
  <advance width="490"/>
  <unicode hex="00BB"/>
  <outline>
    <contour>
      <point x="470" y="263" type="line"/>
      <point x="335" y="0" type="line"/>
      <point x="237" y="0" type="line"/>
      <point x="367" y="262" type="line"/>
      <point x="237" y="525" type="line"/>
      <point x="335" y="525" type="line"/>
    </contour>
    <contour>
      <point x="278" y="263" type="line"/>
      <point x="143" y="0" type="line"/>
      <point x="45" y="0" type="line"/>
      <point x="175" y="262" type="line"/>
      <point x="45" y="525" type="line"/>
      <point x="143" y="525" type="line"/>
    </contour>
  </outline>
</glyph>
<glyph name="questiondown" format="1">
  <advance width="451"/>
  <unicode hex="00BF"/>
  <outline>
    <contour>
      <point x="314" y="643" type="curve" smooth="yes"/>
      <point x="314" y="605"/>
      <point x="284" y="574"/>
      <point x="246" y="574" type="curve" smooth="yes"/>
      <point x="208" y="574"/>
      <point x="178" y="605"/>
      <point x="178" y="643" type="curve" smooth="yes"/>
      <point x="178" y="681"/>
      <point x="208" y="711"/>
      <point x="246" y="711" type="curve" smooth="yes"/>
      <point x="284" y="711"/>
      <point x="314" y="681"/>
    </contour>
    <contour>
      <point x="433" y="84" type="line"/>
      <point x="376" y="27"/>
      <point x="310" y="-11"/>
      <point x="225" y="-11" type="curve" smooth="yes"/>
      <point x="104" y="-11"/>
      <point x="40" y="59"/>
      <point x="40" y="163" type="curve" smooth="yes"/>
      <point x="40" y="258"/>
      <point x="84" y="302"/>
      <point x="144" y="342" type="curve" smooth="yes"/>
      <point x="196" y="378"/>
      <point x="199" y="410"/>
      <point x="199" y="498" type="curve"/>
      <point x="300" y="498" type="line"/>
      <point x="300" y="381"/>
      <point x="292" y="332"/>
      <point x="198" y="270" type="curve" smooth="yes"/>
      <point x="159" y="244"/>
      <point x="141" y="213"/>
      <point x="141" y="172" type="curve" smooth="yes"/>
      <point x="141" y="116"/>
      <point x="177" y="88"/>
      <point x="229" y="88" type="curve" smooth="yes"/>
      <point x="279" y="88"/>
      <point x="320" y="111"/>
      <point x="371" y="157" type="curve"/>
    </contour>
  </outline>
</glyph>
<glyph name="Aring" format="1">
  <advance width="494"/>
  <unicode hex="00C5"/>
  <outline>
    <contour>
      <point x="469" y="0" type="line"/>
      <point x="362" y="0" type="line"/>
      <point x="321" y="185" type="line"/>
      <point x="169" y="185" type="line"/>
      <point x="129" y="0" type="line"/>
      <point x="25" y="0" type="line"/>
      <point x="183" y="643" type="line"/>
      <point x="153" y="662"/>
      <point x="134" y="696"/>
      <point x="134" y="737" type="curve" smooth="yes"/>
      <point x="134" y="802"/>
      <point x="182" y="850"/>
      <point x="247" y="850" type="curve" smooth="yes"/>
      <point x="312" y="850"/>
      <point x="360" y="802"/>
      <point x="360" y="737" type="curve" smooth="yes"/>
      <point x="360" y="697"/>
      <point x="341" y="663"/>
      <point x="312" y="644" type="curve"/>
    </contour>
    <contour>
      <point x="302" y="737" type="curve" smooth="yes"/>
      <point x="302" y="769"/>
      <point x="278" y="793"/>
      <point x="247" y="793" type="curve" smooth="yes"/>
      <point x="216" y="793"/>
      <point x="192" y="769"/>
      <point x="192" y="737" type="curve" smooth="yes"/>
      <point x="192" y="705"/>
      <point x="216" y="681"/>
      <point x="247" y="681" type="curve" smooth="yes"/>
      <point x="278" y="681"/>
      <point x="302" y="705"/>
    </contour>
    <contour>
      <point x="301" y="278" type="line"/>
      <point x="275" y="396" type="line" smooth="yes"/>
      <point x="265" y="442"/>
      <point x="250" y="523"/>
      <point x="245" y="549" type="curve"/>
      <point x="240" y="523"/>
      <point x="225" y="443"/>
      <point x="215" y="396" type="curve" smooth="yes"/>
      <point x="189" y="278" type="line"/>
    </contour>
  </outline>
</glyph>
<glyph name="AE" format="1">
  <advance width="667"/>
  <unicode hex="00C6"/>
  <outline>
    <contour>
      <point x="634" y="0" type="line"/>
      <point x="307" y="0" type="line"/>
      <point x="307" y="165" type="line"/>
      <point x="170" y="165" type="line"/>
      <point x="116" y="0" type="line"/>
      <point x="17" y="0" type="line"/>
      <point x="259" y="700" type="line"/>
      <point x="621" y="700" type="line"/>
      <point x="621" y="605" type="line"/>
      <point x="400" y="605" type="line"/>
      <point x="400" y="418" type="line"/>
      <point x="541" y="418" type="line"/>
      <point x="541" y="324" type="line"/>
      <point x="400" y="324" type="line"/>
      <point x="400" y="95" type="line"/>
      <point x="634" y="95" type="line"/>
    </contour>
    <contour>
      <point x="309" y="597" type="curve"/>
      <point x="300" y="565"/>
      <point x="278" y="496"/>
      <point x="267" y="462" type="curve" smooth="yes"/>
      <point x="200" y="258" type="line"/>
      <point x="307" y="258" type="line"/>
      <point x="307" y="471" type="line" smooth="yes"/>
      <point x="307" y="502"/>
      <point x="308" y="562"/>
    </contour>
  </outline>
</glyph>
<glyph name="Ccedilla" format="1">
  <advance width="480"/>
  <unicode hex="00C7"/>
  <outline>
    <contour>
      <point x="437" y="166" type="line"/>
      <point x="416" y="64"/>
      <point x="369" y="-6"/>
      <point x="262" y="-11" type="curve"/>
      <point x="255" y="-48" type="line"/>
      <point x="265" y="-42"/>
      <point x="278" y="-39"/>
      <point x="297" y="-39" type="curve" smooth="yes"/>
      <point x="332" y="-39"/>
      <point x="361" y="-61"/>
      <point x="361" y="-110" type="curve" smooth="yes"/>
      <point x="361" y="-167"/>
      <point x="321" y="-193"/>
      <point x="254" y="-193" type="curve" smooth="yes"/>
      <point x="214" y="-193"/>
      <point x="185" y="-183"/>
      <point x="153" y="-164" type="curve"/>
      <point x="173" y="-132" type="line"/>
      <point x="196" y="-144"/>
      <point x="224" y="-149"/>
      <point x="246" y="-149" type="curve" smooth="yes"/>
      <point x="279" y="-149"/>
      <point x="295" y="-135"/>
      <point x="295" y="-113" type="curve" smooth="yes"/>
      <point x="295" y="-91"/>
      <point x="284" y="-80"/>
      <point x="269" y="-80" type="curve" smooth="yes"/>
      <point x="253" y="-80"/>
      <point x="246" y="-83"/>
      <point x="232" y="-92" type="curve"/>
      <point x="200" y="-79" type="line"/>
      <point x="215" y="-8" type="line"/>
      <point x="91" y="16"/>
      <point x="45" y="167"/>
      <point x="45" y="349" type="curve" smooth="yes"/>
      <point x="45" y="552"/>
      <point x="106" y="711"/>
      <point x="254" y="711" type="curve" smooth="yes"/>
      <point x="371" y="711"/>
      <point x="419" y="640"/>
      <point x="436" y="540" type="curve"/>
      <point x="337" y="515" type="line"/>
      <point x="324" y="578"/>
      <point x="305" y="612"/>
      <point x="251" y="612" type="curve" smooth="yes"/>
      <point x="166" y="612"/>
      <point x="146" y="474"/>
      <point x="146" y="351" type="curve" smooth="yes"/>
      <point x="146" y="222"/>
      <point x="173" y="88"/>
      <point x="258" y="88" type="curve" smooth="yes"/>
      <point x="305" y="88"/>
      <point x="327" y="120"/>
      <point x="346" y="195" type="curve"/>
    </contour>
  </outline>
</glyph>
<glyph name="Eth" format="1">
  <advance width="517"/>
  <unicode hex="00D0"/>
  <outline>
    <contour>
      <point x="472" y="353" type="curve" smooth="yes"/>
      <point x="472" y="145"/>
      <point x="398" y="0"/>
      <point x="250" y="0" type="curve" smooth="yes"/>
      <point x="80" y="0" type="line"/>
      <point x="80" y="321" type="line"/>
      <point x="30" y="321" type="line"/>
      <point x="30" y="411" type="line"/>
      <point x="80" y="411" type="line"/>
      <point x="80" y="700" type="line"/>
      <point x="250" y="700" type="line" smooth="yes"/>
      <point x="405" y="700"/>
      <point x="472" y="561"/>
    </contour>
    <contour>
      <point x="371" y="353" type="curve" smooth="yes"/>
      <point x="371" y="476"/>
      <point x="345" y="604"/>
      <point x="247" y="604" type="curve" smooth="yes"/>
      <point x="176" y="604" type="line"/>
      <point x="176" y="411" type="line"/>
      <point x="257" y="411" type="line"/>
      <point x="257" y="321" type="line"/>
      <point x="176" y="321" type="line"/>
      <point x="176" y="96" type="line"/>
      <point x="250" y="96" type="line" smooth="yes"/>
      <point x="344" y="96"/>
      <point x="371" y="230"/>
    </contour>
  </outline>
</glyph>
<glyph name="Oslash" format="1">
  <advance width="513"/>
  <unicode hex="00D8"/>
  <outline>
    <contour>
      <point x="468" y="351" type="curve" smooth="yes"/>
      <point x="468" y="148"/>
      <point x="403" y="-11"/>
      <point x="255" y="-11" type="curve" smooth="yes"/>
      <point x="227" y="-11"/>
      <point x="202" y="-5"/>
      <point x="180" y="5" type="curve"/>
      <point x="162" y="-50" type="line"/>
      <point x="76" y="-50" type="line"/>
      <point x="114" y="61" type="line"/>
      <point x="66" y="127"/>
      <point x="45" y="230"/>
      <point x="45" y="349" type="curve" smooth="yes"/>
      <point x="45" y="552"/>
      <point x="108" y="711"/>
      <point x="256" y="711" type="curve" smooth="yes"/>
      <point x="284" y="711"/>
      <point x="308" y="706"/>
      <point x="330" y="695" type="curve"/>
      <point x="349" y="750" type="line"/>
      <point x="435" y="750" type="line"/>
      <point x="397" y="639" type="line"/>
      <point x="446" y="574"/>
      <point x="468" y="471"/>
    </contour>
    <contour>
      <point x="299" y="602" type="line"/>
      <point x="286" y="611"/>
      <point x="271" y="616"/>
      <point x="254" y="616" type="curve" smooth="yes"/>
      <point x="168" y="616"/>
      <point x="143" y="482"/>
      <point x="143" y="351" type="curve" smooth="yes"/>
      <point x="143" y="292"/>
      <point x="148" y="236"/>
      <point x="160" y="191" type="curve"/>
    </contour>
    <contour>
      <point x="370" y="349" type="curve" smooth="yes"/>
      <point x="370" y="409"/>
      <point x="365" y="465"/>
      <point x="352" y="511" type="curve"/>
      <point x="212" y="99" type="line"/>
      <point x="225" y="89"/>
      <point x="241" y="84"/>
      <point x="258" y="84" type="curve" smooth="yes"/>
      <point x="344" y="84"/>
      <point x="370" y="218"/>
    </contour>
  </outline>
</glyph>
<glyph name="Thorn" format="1">
  <advance width="478"/>
  <unicode hex="00DE"/>
  <outline>
    <contour>
      <point x="452" y="368" type="curve" smooth="yes"/>
      <point x="452" y="226"/>
      <point x="356" y="157"/>
      <point x="250" y="157" type="curve" smooth="yes"/>
      <point x="168" y="157" type="line"/>
      <point x="168" y="0" type="line"/>
      <point x="70" y="0" type="line"/>
      <point x="70" y="700" type="line"/>
      <point x="168" y="700" type="line"/>
      <point x="168" y="572" type="line"/>
      <point x="255" y="572" type="line" smooth="yes"/>
      <point x="354" y="572"/>
      <point x="452" y="513"/>
    </contour>
    <contour>
      <point x="351" y="365" type="curve" smooth="yes"/>
      <point x="351" y="444"/>
      <point x="304" y="476"/>
      <point x="248" y="476" type="curve" smooth="yes"/>
      <point x="168" y="476" type="line"/>
      <point x="168" y="252" type="line"/>
      <point x="251" y="252" type="line" smooth="yes"/>
      <point x="308" y="252"/>
      <point x="351" y="289"/>
    </contour>
  </outline>
</glyph>
<glyph name="germandbls" format="1">
  <advance width="463"/>
  <unicode hex="00DF"/>
  <outline>
    <contour>
      <point x="421" y="218" type="curve" smooth="yes"/>
      <point x="421" y="78"/>
      <point x="365" y="0"/>
      <point x="222" y="0" type="curve" smooth="yes"/>
      <point x="211" y="0" type="line"/>
      <point x="211" y="88" type="line"/>
      <point x="223" y="88" type="line" smooth="yes"/>
      <point x="293" y="88"/>
      <point x="324" y="131"/>
      <point x="324" y="215" type="curve" smooth="yes"/>
      <point x="324" y="308"/>
      <point x="293" y="352"/>
      <point x="221" y="352" type="curve" smooth="yes"/>
      <point x="211" y="352" type="line"/>
      <point x="211" y="439" type="line"/>
      <point x="220" y="439" type="line" smooth="yes"/>
      <point x="275" y="439"/>
      <point x="300" y="481"/>
      <point x="300" y="538" type="curve" smooth="yes"/>
      <point x="300" y="602"/>
      <point x="279" y="637"/>
      <point x="225" y="637" type="curve" smooth="yes"/>
      <point x="171" y="637"/>
      <point x="153" y="605"/>
      <point x="153" y="542" type="curve" smooth="yes"/>
      <point x="153" y="-141" type="line"/>
      <point x="57" y="-193" type="line"/>
      <point x="57" y="531" type="line" smooth="yes"/>
      <point x="57" y="667"/>
      <point x="108" y="726"/>
      <point x="227" y="726" type="curve" smooth="yes"/>
      <point x="337" y="726"/>
      <point x="397" y="660"/>
      <point x="397" y="546" type="curve" smooth="yes"/>
      <point x="397" y="469"/>
      <point x="369" y="427"/>
      <point x="326" y="402" type="curve"/>
      <point x="385" y="379"/>
      <point x="421" y="328"/>
    </contour>
  </outline>
</glyph>
<glyph name="ae" format="1">
  <advance width="685"/>
  <unicode hex="00E6"/>
  <outline>
    <contour>
      <point x="646" y="264" type="curve" smooth="yes"/>
      <point x="646" y="255"/>
      <point x="646" y="240"/>
      <point x="645" y="230" type="curve"/>
      <point x="370" y="230" type="line"/>
      <point x="376" y="126"/>
      <point x="413" y="81"/>
      <point x="469" y="81" type="curve" smooth="yes"/>
      <point x="513" y="81"/>
      <point x="534" y="92"/>
      <point x="564" y="120" type="curve"/>
      <point x="623" y="59" type="line"/>
      <point x="587" y="19"/>
      <point x="534" y="-11"/>
      <point x="467" y="-11" type="curve" smooth="yes"/>
      <point x="400" y="-11"/>
      <point x="361" y="16"/>
      <point x="332" y="65" type="curve"/>
      <point x="290" y="17"/>
      <point x="246" y="-11"/>
      <point x="174" y="-11" type="curve" smooth="yes"/>
      <point x="97" y="-11"/>
      <point x="31" y="47"/>
      <point x="31" y="165" type="curve" smooth="yes"/>
      <point x="31" y="279"/>
      <point x="102" y="337"/>
      <point x="202" y="337" type="curve" smooth="yes"/>
      <point x="234" y="337"/>
      <point x="261" y="330"/>
      <point x="282" y="320" type="curve"/>
      <point x="282" y="371" type="line" smooth="yes"/>
      <point x="282" y="422"/>
      <point x="265" y="446"/>
      <point x="214" y="446" type="curve" smooth="yes"/>
      <point x="181" y="446"/>
      <point x="151" y="437"/>
      <point x="111" y="413" type="curve"/>
      <point x="70" y="486" type="line"/>
      <point x="118" y="518"/>
      <point x="171" y="536"/>
      <point x="218" y="536" type="curve" smooth="yes"/>
      <point x="296" y="536"/>
      <point x="321" y="515"/>
      <point x="344" y="474" type="curve"/>
      <point x="366" y="507"/>
      <point x="405" y="536"/>
      <point x="461" y="536" type="curve" smooth="yes"/>
      <point x="566" y="536"/>
      <point x="646" y="447"/>
    </contour>
    <contour>
      <point x="548" y="313" type="line"/>
      <point x="545" y="391"/>
      <point x="513" y="446"/>
      <point x="459" y="446" type="curve" smooth="yes"/>
      <point x="410" y="446"/>
      <point x="379" y="403"/>
      <point x="371" y="313" type="curve"/>
    </contour>
    <contour>
      <point x="282" y="125" type="curve"/>
      <point x="282" y="230" type="line"/>
      <point x="259" y="244"/>
      <point x="239" y="250"/>
      <point x="203" y="250" type="curve" smooth="yes"/>
      <point x="158" y="250"/>
      <point x="127" y="224"/>
      <point x="127" y="167" type="curve" smooth="yes"/>
      <point x="127" y="105"/>
      <point x="152" y="76"/>
      <point x="193" y="76" type="curve" smooth="yes"/>
      <point x="234" y="76"/>
      <point x="264" y="94"/>
    </contour>
  </outline>
</glyph>
<glyph name="ccedilla" format="1">
  <advance width="410"/>
  <unicode hex="00E7"/>
  <outline>
    <contour>
      <point x="375" y="82" type="line"/>
      <point x="341" y="29"/>
      <point x="301" y="-9"/>
      <point x="229" y="-11" type="curve"/>
      <point x="222" y="-48" type="line"/>
      <point x="232" y="-42"/>
      <point x="245" y="-39"/>
      <point x="264" y="-39" type="curve" smooth="yes"/>
      <point x="299" y="-39"/>
      <point x="328" y="-61"/>
      <point x="328" y="-110" type="curve" smooth="yes"/>
      <point x="328" y="-167"/>
      <point x="288" y="-193"/>
      <point x="221" y="-193" type="curve" smooth="yes"/>
      <point x="181" y="-193"/>
      <point x="152" y="-183"/>
      <point x="120" y="-164" type="curve"/>
      <point x="140" y="-132" type="line"/>
      <point x="163" y="-144"/>
      <point x="191" y="-149"/>
      <point x="213" y="-149" type="curve" smooth="yes"/>
      <point x="246" y="-149"/>
      <point x="262" y="-135"/>
      <point x="262" y="-113" type="curve" smooth="yes"/>
      <point x="262" y="-91"/>
      <point x="251" y="-80"/>
      <point x="236" y="-80" type="curve" smooth="yes"/>
      <point x="220" y="-80"/>
      <point x="213" y="-83"/>
      <point x="199" y="-92" type="curve"/>
      <point x="167" y="-79" type="line"/>
      <point x="182" y="-7" type="line"/>
      <point x="95" y="13"/>
      <point x="39" y="99"/>
      <point x="39" y="260" type="curve" smooth="yes"/>
      <point x="39" y="444"/>
      <point x="109" y="536"/>
      <point x="226" y="536" type="curve" smooth="yes"/>
      <point x="302" y="536"/>
      <point x="344" y="495"/>
      <point x="374" y="444" type="curve"/>
      <point x="305" y="384" type="line"/>
      <point x="278" y="427"/>
      <point x="257" y="444"/>
      <point x="223" y="444" type="curve" smooth="yes"/>
      <point x="162" y="444"/>
      <point x="136" y="377"/>
      <point x="136" y="262" type="curve" smooth="yes"/>
      <point x="136" y="151"/>
      <point x="163" y="81"/>
      <point x="226" y="81" type="curve" smooth="yes"/>
      <point x="258" y="81"/>
      <point x="280" y="98"/>
      <point x="306" y="139" type="curve"/>
    </contour>
  </outline>
</glyph>
<glyph name="eth" format="1">
  <advance width="456"/>
  <unicode hex="00F0"/>
  <outline>
    <contour>
      <point x="417" y="291" type="curve" smooth="yes"/>
      <point x="417" y="75"/>
      <point x="360" y="-11"/>
      <point x="225" y="-11" type="curve" smooth="yes"/>
      <point x="116" y="-11"/>
      <point x="39" y="64"/>
      <point x="39" y="230" type="curve" smooth="yes"/>
      <point x="39" y="391"/>
      <point x="110" y="478"/>
      <point x="216" y="478" type="curve" smooth="yes"/>
      <point x="262" y="478"/>
      <point x="291" y="467"/>
      <point x="321" y="432" type="curve"/>
      <point x="314" y="482"/>
      <point x="298" y="524"/>
      <point x="274" y="557" type="curve"/>
      <point x="235" y="516" type="line"/>
      <point x="179" y="565" type="line"/>
      <point x="218" y="606" type="line"/>
      <point x="196" y="618"/>
      <point x="171" y="626"/>
      <point x="142" y="629" type="curve"/>
      <point x="142" y="711" type="line"/>
      <point x="195" y="706"/>
      <point x="240" y="692"/>
      <point x="277" y="668" type="curve"/>
      <point x="318" y="711" type="line"/>
      <point x="374" y="662" type="line"/>
      <point x="332" y="618" type="line"/>
      <point x="390" y="548"/>
      <point x="417" y="439"/>
    </contour>
    <contour>
      <point x="320" y="232" type="curve" smooth="yes"/>
      <point x="320" y="339"/>
      <point x="287" y="384"/>
      <point x="227" y="384" type="curve" smooth="yes"/>
      <point x="167" y="384"/>
      <point x="136" y="340"/>
      <point x="136" y="232" type="curve" smooth="yes"/>
      <point x="136" y="124"/>
      <point x="168" y="81"/>
      <point x="228" y="81" type="curve" smooth="yes"/>
      <point x="288" y="81"/>
      <point x="320" y="133"/>
    </contour>
  </outline>
</glyph>
<glyph name="oslash" format="1">
  <advance width="456"/>
  <unicode hex="00F8"/>
  <outline>
    <contour>
      <point x="417" y="264" type="curve" smooth="yes"/>
      <point x="417" y="80"/>
      <point x="341" y="-11"/>
      <point x="225" y="-11" type="curve" smooth="yes"/>
      <point x="206" y="-11"/>
      <point x="187" y="-8"/>
      <point x="170" y="-3" type="curve"/>
      <point x="153" y="-50" type="line"/>
      <point x="71" y="-50" type="line"/>
      <point x="104" y="39" type="line"/>
      <point x="63" y="84"/>
      <point x="39" y="157"/>
      <point x="39" y="260" type="curve" smooth="yes"/>
      <point x="39" y="444"/>
      <point x="112" y="536"/>
      <point x="229" y="536" type="curve" smooth="yes"/>
      <point x="248" y="536"/>
      <point x="267" y="533"/>
      <point x="284" y="528" type="curve"/>
      <point x="301" y="575" type="line"/>
      <point x="383" y="575" type="line"/>
      <point x="350" y="486" type="line"/>
      <point x="392" y="442"/>
      <point x="417" y="368"/>
    </contour>
    <contour>
      <point x="253" y="444" type="line"/>
      <point x="245" y="447"/>
      <point x="236" y="448"/>
      <point x="227" y="448" type="curve" smooth="yes"/>
      <point x="166" y="448"/>
      <point x="132" y="384"/>
      <point x="132" y="262" type="curve" smooth="yes"/>
      <point x="132" y="215"/>
      <point x="136" y="179"/>
      <point x="145" y="150" type="curve"/>
    </contour>
    <contour>
      <point x="324" y="262" type="curve" smooth="yes"/>
      <point x="324" y="310"/>
      <point x="319" y="348"/>
      <point x="310" y="376" type="curve"/>
      <point x="201" y="81" type="line"/>
      <point x="210" y="78"/>
      <point x="219" y="77"/>
      <point x="228" y="77" type="curve" smooth="yes"/>
      <point x="289" y="77"/>
      <point x="324" y="151"/>
    </contour>
  </outline>
</glyph>
<glyph name="Lslash" format="1">
  <advance width="428"/>
  <unicode hex="0141"/>
  <outline>
    <contour>
      <point x="402" y="0" type="line"/>
      <point x="80" y="0" type="line"/>
      <point x="80" y="227" type="line"/>
      <point x="40" y="194" type="line"/>
      <point x="40" y="299" type="line"/>
      <point x="80" y="332" type="line"/>
      <point x="80" y="700" type="line"/>
      <point x="176" y="700" type="line"/>
      <point x="176" y="400" type="line"/>
      <point x="279" y="482" type="line"/>
      <point x="279" y="377" type="line"/>
      <point x="176" y="295" type="line"/>
      <point x="176" y="96" type="line"/>
      <point x="402" y="96" type="line"/>
    </contour>
  </outline>
</glyph>
<glyph name="lslash" format="1">
  <advance width="248"/>
  <unicode hex="0142"/>
  <outline>
    <contour>
      <point x="214" y="340" type="line"/>
      <point x="171" y="305" type="line"/>
      <point x="171" y="0" type="line"/>
      <point x="77" y="0" type="line"/>
      <point x="77" y="237" type="line"/>
      <point x="34" y="203" type="line"/>
      <point x="34" y="308" type="line"/>
      <point x="77" y="342" type="line"/>
      <point x="77" y="679" type="line"/>
      <point x="171" y="729" type="line"/>
      <point x="171" y="410" type="line"/>
      <point x="214" y="445" type="line"/>
    </contour>
  </outline>
</glyph>
<glyph name="OE" format="1">
  <advance width="735"/>
  <unicode hex="0152"/>
  <outline>
    <contour>
      <point x="702" y="0" type="line"/>
      <point x="380" y="0" type="line"/>
      <point x="380" y="63" type="line"/>
      <point x="351" y="18"/>
      <point x="308" y="-11"/>
      <point x="255" y="-11" type="curve" smooth="yes"/>
      <point x="107" y="-11"/>
      <point x="45" y="146"/>
      <point x="45" y="349" type="curve" smooth="yes"/>
      <point x="45" y="552"/>
      <point x="108" y="711"/>
      <point x="256" y="711" type="curve" smooth="yes"/>
      <point x="312" y="711"/>
      <point x="358" y="684"/>
      <point x="380" y="633" type="curve"/>
      <point x="380" y="700" type="line"/>
      <point x="689" y="700" type="line"/>
      <point x="689" y="605" type="line"/>
      <point x="458" y="605" type="line"/>
      <point x="458" y="418" type="line"/>
      <point x="609" y="418" type="line"/>
      <point x="609" y="324" type="line"/>
      <point x="458" y="324" type="line"/>
      <point x="458" y="95" type="line"/>
      <point x="702" y="95" type="line"/>
    </contour>
    <contour>
      <point x="368" y="349" type="curve" smooth="yes"/>
      <point x="368" y="479"/>
      <point x="339" y="613"/>
      <point x="254" y="613" type="curve" smooth="yes"/>
      <point x="169" y="613"/>
      <point x="145" y="481"/>
      <point x="145" y="351" type="curve" smooth="yes"/>
      <point x="145" y="221"/>
      <point x="173" y="87"/>
      <point x="258" y="87" type="curve" smooth="yes"/>
      <point x="343" y="87"/>
      <point x="368" y="219"/>
    </contour>
  </outline>
</glyph>
<glyph name="oe" format="1">
  <advance width="725"/>
  <unicode hex="0153"/>
  <outline>
    <contour>
      <point x="686" y="264" type="curve" smooth="yes"/>
      <point x="686" y="255"/>
      <point x="686" y="240"/>
      <point x="685" y="230" type="curve"/>
      <point x="410" y="230" type="line"/>
      <point x="416" y="126"/>
      <point x="453" y="81"/>
      <point x="509" y="81" type="curve" smooth="yes"/>
      <point x="553" y="81"/>
      <point x="574" y="92"/>
      <point x="604" y="120" type="curve"/>
      <point x="663" y="59" type="line"/>
      <point x="627" y="19"/>
      <point x="574" y="-11"/>
      <point x="507" y="-11" type="curve" smooth="yes"/>
      <point x="437" y="-11"/>
      <point x="389" y="26"/>
      <point x="366" y="74" type="curve"/>
      <point x="341" y="25"/>
      <point x="292" y="-11"/>
      <point x="225" y="-11" type="curve" smooth="yes"/>
      <point x="116" y="-11"/>
      <point x="39" y="76"/>
      <point x="39" y="260" type="curve" smooth="yes"/>
      <point x="39" y="444"/>
      <point x="112" y="536"/>
      <point x="229" y="536" type="curve" smooth="yes"/>
      <point x="293" y="536"/>
      <point x="340" y="503"/>
      <point x="365" y="452" type="curve"/>
      <point x="392" y="502"/>
      <point x="437" y="536"/>
      <point x="501" y="536" type="curve" smooth="yes"/>
      <point x="606" y="536"/>
      <point x="686" y="447"/>
    </contour>
    <contour>
      <point x="588" y="313" type="line"/>
      <point x="585" y="391"/>
      <point x="553" y="446"/>
      <point x="499" y="446" type="curve" smooth="yes"/>
      <point x="450" y="446"/>
      <point x="419" y="403"/>
      <point x="411" y="313" type="curve"/>
    </contour>
    <contour>
      <point x="320" y="262" type="curve" smooth="yes"/>
      <point x="320" y="381"/>
      <point x="287" y="444"/>
      <point x="227" y="444" type="curve" smooth="yes"/>
      <point x="167" y="444"/>
      <point x="136" y="382"/>
      <point x="136" y="262" type="curve" smooth="yes"/>
      <point x="136" y="142"/>
      <point x="168" y="81"/>
      <point x="228" y="81" type="curve" smooth="yes"/>
      <point x="288" y="81"/>
      <point x="320" y="153"/>
    </contour>
  </outline>
</glyph>
<glyph name="florin" format="1">
  <advance width="340"/>
  <unicode hex="0192"/>
  <outline>
    <contour>
      <point x="309" y="619" type="line"/>
      <point x="293" y="623"/>
      <point x="267" y="625"/>
      <point x="253" y="625" type="curve" smooth="yes"/>
      <point x="212" y="625"/>
      <point x="198" y="608"/>
      <point x="198" y="569" type="curve" smooth="yes"/>
      <point x="198" y="525" type="line"/>
      <point x="294" y="525" type="line"/>
      <point x="294" y="437" type="line"/>
      <point x="198" y="437" type="line"/>
      <point x="198" y="-141" type="line"/>
      <point x="102" y="-193" type="line"/>
      <point x="102" y="437" type="line"/>
      <point x="49" y="437" type="line"/>
      <point x="49" y="525" type="line"/>
      <point x="102" y="525" type="line"/>
      <point x="102" y="584" type="line" smooth="yes"/>
      <point x="102" y="678"/>
      <point x="149" y="711"/>
      <point x="225" y="711" type="curve" smooth="yes"/>
      <point x="256" y="711"/>
      <point x="285" y="707"/>
      <point x="309" y="701" type="curve"/>
    </contour>
  </outline>
</glyph>
<glyph name="circumflex" format="1">
  <advance width="400"/>
  <unicode hex="02C6"/>
  <outline>
    <contour>
      <point x="354" y="595" type="line"/>
      <point x="276" y="595" type="line"/>
      <point x="199" y="683" type="line"/>
      <point x="122" y="595" type="line"/>
      <point x="46" y="595" type="line"/>
      <point x="148" y="755" type="line"/>
      <point x="252" y="755" type="line"/>
    </contour>
  </outline>
</glyph>
<glyph name="caron" format="1">
  <advance width="400"/>
  <unicode hex="02C7"/>
  <outline>
    <contour>
      <point x="354" y="755" type="line"/>
      <point x="252" y="595" type="line"/>
      <point x="148" y="595" type="line"/>
      <point x="46" y="755" type="line"/>
      <point x="124" y="755" type="line"/>
      <point x="201" y="667" type="line"/>
      <point x="278" y="755" type="line"/>
    </contour>
  </outline>
</glyph>
<glyph name="breve" format="1">
  <advance width="400"/>
  <unicode hex="02D8"/>
  <outline>
    <contour>
      <point x="355" y="755" type="line"/>
      <point x="342" y="659"/>
      <point x="293" y="595"/>
      <point x="200" y="595" type="curve" smooth="yes"/>
      <point x="111" y="595"/>
      <point x="57" y="654"/>
      <point x="47" y="755" type="curve"/>
      <point x="116" y="755" type="line"/>
      <point x="127" y="703"/>
      <point x="150" y="675"/>
      <point x="202" y="675" type="curve" smooth="yes"/>
      <point x="252" y="675"/>
      <point x="274" y="703"/>
      <point x="286" y="755" type="curve"/>
    </contour>
  </outline>
</glyph>
<glyph name="dotaccent" format="1">
  <advance width="400"/>
  <unicode hex="02D9"/>
  <outline>
    <contour>
      <point x="264" y="659" type="curve" smooth="yes"/>
      <point x="264" y="625"/>
      <point x="234" y="595"/>
      <point x="200" y="595" type="curve" smooth="yes"/>
      <point x="165" y="595"/>
      <point x="135" y="625"/>
      <point x="135" y="659" type="curve" smooth="yes"/>
      <point x="135" y="694"/>
      <point x="165" y="724"/>
      <point x="200" y="724" type="curve" smooth="yes"/>
      <point x="234" y="724"/>
      <point x="264" y="694"/>
    </contour>
  </outline>
</glyph>
<glyph name="ring" format="1">
  <advance width="400"/>
  <unicode hex="02DA"/>
  <outline>
    <contour>
      <point x="313" y="707" type="curve" smooth="yes"/>
      <point x="313" y="642"/>
      <point x="265" y="595"/>
      <point x="200" y="595" type="curve" smooth="yes"/>
      <point x="135" y="595"/>
      <point x="87" y="642"/>
      <point x="87" y="707" type="curve" smooth="yes"/>
      <point x="87" y="772"/>
      <point x="135" y="820"/>
      <point x="200" y="820" type="curve" smooth="yes"/>
      <point x="265" y="820"/>
      <point x="313" y="772"/>
    </contour>
    <contour>
      <point x="255" y="707" type="curve" smooth="yes"/>
      <point x="255" y="739"/>
      <point x="231" y="763"/>
      <point x="200" y="763" type="curve" smooth="yes"/>
      <point x="169" y="763"/>
      <point x="145" y="739"/>
      <point x="145" y="707" type="curve" smooth="yes"/>
      <point x="145" y="675"/>
      <point x="169" y="651"/>
      <point x="200" y="651" type="curve" smooth="yes"/>
      <point x="231" y="651"/>
      <point x="255" y="675"/>
    </contour>
  </outline>
</glyph>
<glyph name="ogonek" format="1">
  <advance width="400"/>
  <unicode hex="02DB"/>
  <outline>
    <contour>
      <point x="306" y="-150" type="line"/>
      <point x="271" y="-175"/>
      <point x="236" y="-193"/>
      <point x="195" y="-193" type="curve" smooth="yes"/>
      <point x="134" y="-193"/>
      <point x="103" y="-164"/>
      <point x="103" y="-115" type="curve" smooth="yes"/>
      <point x="103" y="-71"/>
      <point x="139" y="-30"/>
      <point x="189" y="0" type="curve"/>
      <point x="239" y="0" type="line"/>
      <point x="197" y="-42"/>
      <point x="180" y="-73"/>
      <point x="180" y="-100" type="curve" smooth="yes"/>
      <point x="180" y="-125"/>
      <point x="191" y="-141"/>
      <point x="218" y="-141" type="curve" smooth="yes"/>
      <point x="238" y="-141"/>
      <point x="254" y="-135"/>
      <point x="284" y="-117" type="curve"/>
    </contour>
  </outline>
</glyph>
<glyph name="tilde" format="1">
  <advance width="400"/>
  <unicode hex="02DC"/>
  <outline>
    <contour>
      <point x="370" y="716" type="line"/>
      <point x="370" y="634"/>
      <point x="330" y="590"/>
      <point x="276" y="590" type="curve" smooth="yes"/>
      <point x="242" y="590"/>
      <point x="216" y="602"/>
      <point x="170" y="630" type="curve" smooth="yes"/>
      <point x="157" y="638"/>
      <point x="147" y="642"/>
      <point x="137" y="642" type="curve" smooth="yes"/>
      <point x="117" y="642"/>
      <point x="106" y="630"/>
      <point x="102" y="595" type="curve"/>
      <point x="36" y="595" type="line"/>
      <point x="36" y="677"/>
      <point x="78" y="719"/>
      <point x="132" y="719" type="curve" smooth="yes"/>
      <point x="166" y="719"/>
      <point x="190" y="707"/>
      <point x="236" y="679" type="curve" smooth="yes"/>
      <point x="249" y="671"/>
      <point x="261" y="667"/>
      <point x="271" y="667" type="curve" smooth="yes"/>
      <point x="291" y="667"/>
      <point x="300" y="681"/>
      <point x="304" y="716" type="curve"/>
    </contour>
  </outline>
</glyph>
<glyph name="hungarumlaut" format="1">
  <advance width="400"/>
  <unicode hex="02DD"/>
  <outline>
    <contour>
      <point x="424" y="755" type="line"/>
      <point x="279" y="595" type="line"/>
      <point x="197" y="595" type="line"/>
      <point x="294" y="755" type="line"/>
    </contour>
    <contour>
      <point x="234" y="755" type="line"/>
      <point x="89" y="595" type="line"/>
      <point x="7" y="595" type="line"/>
      <point x="104" y="755" type="line"/>
    </contour>
  </outline>
</glyph>
<glyph name="endash" format="1">
  <advance width="400"/>
  <unicode hex="2013"/>
  <outline>
    <contour>
      <point x="360" y="319" type="line"/>
      <point x="40" y="319" type="line"/>
      <point x="40" y="413" type="line"/>
      <point x="360" y="413" type="line"/>
    </contour>
  </outline>
</glyph>
<glyph name="emdash" format="1">
  <advance width="550"/>
  <unicode hex="2014"/>
  <outline>
    <contour>
      <point x="510" y="319" type="line"/>
      <point x="40" y="319" type="line"/>
      <point x="40" y="413" type="line"/>
      <point x="510" y="413" type="line"/>
    </contour>
  </outline>
</glyph>
<glyph name="quoteleft" format="1">
  <advance width="242"/>
  <unicode hex="2018"/>
  <unicode hex="02BB"/>
  <outline>
    <contour>
      <point x="180" y="700" type="line"/>
      <point x="167" y="461" type="line"/>
      <point x="48" y="461" type="line"/>
      <point x="115" y="700" type="line"/>
    </contour>
  </outline>
</glyph>
<glyph name="quoteright" format="1">
  <advance width="242"/>
  <unicode hex="2019"/>
  <unicode hex="02BC"/>
  <outline>
    <contour>
      <point x="194" y="700" type="line"/>
      <point x="127" y="461" type="line"/>
      <point x="62" y="461" type="line"/>
      <point x="75" y="700" type="line"/>
    </contour>
  </outline>
</glyph>
<glyph name="quotesinglbase" format="1">
  <advance width="242"/>
  <unicode hex="201A"/>
  <outline>
    <contour>
      <point x="194" y="126" type="line"/>
      <point x="127" y="-113" type="line"/>
      <point x="62" y="-113" type="line"/>
      <point x="75" y="126" type="line"/>
    </contour>
  </outline>
</glyph>
<glyph name="quotedblleft" format="1">
  <advance width="457"/>
  <unicode hex="201C"/>
  <outline>
    <contour>
      <point x="395" y="700" type="line"/>
      <point x="382" y="461" type="line"/>
      <point x="263" y="461" type="line"/>
      <point x="330" y="700" type="line"/>
    </contour>
    <contour>
      <point x="180" y="700" type="line"/>
      <point x="167" y="461" type="line"/>
      <point x="48" y="461" type="line"/>
      <point x="115" y="700" type="line"/>
    </contour>
  </outline>
</glyph>
<glyph name="quotedblright" format="1">
  <advance width="457"/>
  <unicode hex="201D"/>
  <outline>
    <contour>
      <point x="409" y="700" type="line"/>
      <point x="342" y="461" type="line"/>
      <point x="277" y="461" type="line"/>
      <point x="290" y="700" type="line"/>
    </contour>
    <contour>
      <point x="194" y="700" type="line"/>
      <point x="127" y="461" type="line"/>
      <point x="62" y="461" type="line"/>
      <point x="75" y="700" type="line"/>
    </contour>
  </outline>
</glyph>
<glyph name="quotedblbase" format="1">
  <advance width="457"/>
  <unicode hex="201E"/>
  <outline>
    <contour>
      <point x="409" y="126" type="line"/>
      <point x="342" y="-113" type="line"/>
      <point x="277" y="-113" type="line"/>
      <point x="290" y="126" type="line"/>
    </contour>
    <contour>
      <point x="194" y="126" type="line"/>
      <point x="127" y="-113" type="line"/>
      <point x="62" y="-113" type="line"/>
      <point x="75" y="126" type="line"/>
    </contour>
  </outline>
</glyph>
<glyph name="dagger" format="1">
  <advance width="442"/>
  <unicode hex="2020"/>
  <outline>
    <contour>
      <point x="410" y="384" type="line"/>
      <point x="269" y="384" type="line"/>
      <point x="269" y="-100" type="line"/>
      <point x="173" y="-100" type="line"/>
      <point x="173" y="384" type="line"/>
      <point x="32" y="384" type="line"/>
      <point x="32" y="474" type="line"/>
      <point x="173" y="474" type="line"/>
      <point x="173" y="700" type="line"/>
      <point x="269" y="700" type="line"/>
      <point x="269" y="474" type="line"/>
      <point x="410" y="474" type="line"/>
    </contour>
  </outline>
</glyph>
<glyph name="daggerdbl" format="1">
  <advance width="442"/>
  <unicode hex="2021"/>
  <outline>
    <contour>
      <point x="410" y="127" type="line"/>
      <point x="269" y="127" type="line"/>
      <point x="269" y="-100" type="line"/>
      <point x="173" y="-100" type="line"/>
      <point x="173" y="127" type="line"/>
      <point x="32" y="127" type="line"/>
      <point x="32" y="217" type="line"/>
      <point x="173" y="217" type="line"/>
      <point x="173" y="384" type="line"/>
      <point x="32" y="384" type="line"/>
      <point x="32" y="474" type="line"/>
      <point x="173" y="474" type="line"/>
      <point x="173" y="700" type="line"/>
      <point x="269" y="700" type="line"/>
      <point x="269" y="474" type="line"/>
      <point x="410" y="474" type="line"/>
      <point x="410" y="384" type="line"/>
      <point x="269" y="384" type="line"/>
      <point x="269" y="217" type="line"/>
      <point x="410" y="217" type="line"/>
    </contour>
  </outline>
</glyph>
<glyph name="ellipsis" format="1">
  <advance width="696"/>
  <unicode hex="2026"/>
  <outline>
    <contour>
      <point x="651" y="60" type="curve" smooth="yes"/>
      <point x="651" y="20"/>
      <point x="620" y="-11"/>
      <point x="580" y="-11" type="curve" smooth="yes"/>
      <point x="540" y="-11"/>
      <point x="509" y="20"/>
      <point x="509" y="60" type="curve" smooth="yes"/>
      <point x="509" y="100"/>
      <point x="540" y="132"/>
      <point x="580" y="132" type="curve" smooth="yes"/>
      <point x="620" y="132"/>
      <point x="651" y="100"/>
    </contour>
    <contour>
      <point x="419" y="60" type="curve" smooth="yes"/>
      <point x="419" y="20"/>
      <point x="388" y="-11"/>
      <point x="348" y="-11" type="curve" smooth="yes"/>
      <point x="308" y="-11"/>
      <point x="277" y="20"/>
      <point x="277" y="60" type="curve" smooth="yes"/>
      <point x="277" y="100"/>
      <point x="308" y="132"/>
      <point x="348" y="132" type="curve" smooth="yes"/>
      <point x="388" y="132"/>
      <point x="419" y="100"/>
    </contour>
    <contour>
      <point x="187" y="60" type="curve" smooth="yes"/>
      <point x="187" y="20"/>
      <point x="156" y="-11"/>
      <point x="116" y="-11" type="curve" smooth="yes"/>
      <point x="76" y="-11"/>
      <point x="45" y="20"/>
      <point x="45" y="60" type="curve" smooth="yes"/>
      <point x="45" y="100"/>
      <point x="76" y="132"/>
      <point x="116" y="132" type="curve" smooth="yes"/>
      <point x="156" y="132"/>
      <point x="187" y="100"/>
    </contour>
  </outline>
</glyph>
<glyph name="perthousand" format="1">
  <advance width="1203"/>
  <unicode hex="2030"/>
  <outline>
    <contour>
      <point x="347" y="494" type="curve" smooth="yes"/>
      <point x="347" y="367"/>
      <point x="299" y="276"/>
      <point x="197" y="276" type="curve" smooth="yes"/>
      <point x="95" y="276"/>
      <point x="50" y="365"/>
      <point x="50" y="492" type="curve" smooth="yes"/>
      <point x="50" y="621"/>
      <point x="95" y="711"/>
      <point x="199" y="711" type="curve" smooth="yes"/>
      <point x="305" y="711"/>
      <point x="347" y="621"/>
    </contour>
    <contour>
      <point x="653" y="700" type="line"/>
      <point x="284" y="0" type="line"/>
      <point x="196" y="0" type="line"/>
      <point x="565" y="700" type="line"/>
    </contour>
    <contour>
      <point x="1160" y="207" type="curve" smooth="yes"/>
      <point x="1160" y="80"/>
      <point x="1112" y="-11"/>
      <point x="1010" y="-11" type="curve" smooth="yes"/>
      <point x="908" y="-11"/>
      <point x="863" y="78"/>
      <point x="863" y="205" type="curve" smooth="yes"/>
      <point x="863" y="334"/>
      <point x="908" y="424"/>
      <point x="1012" y="424" type="curve" smooth="yes"/>
      <point x="1118" y="424"/>
      <point x="1160" y="334"/>
    </contour>
    <contour>
      <point x="805" y="207" type="curve" smooth="yes"/>
      <point x="805" y="80"/>
      <point x="757" y="-11"/>
      <point x="655" y="-11" type="curve" smooth="yes"/>
      <point x="553" y="-11"/>
      <point x="508" y="78"/>
      <point x="508" y="205" type="curve" smooth="yes"/>
      <point x="508" y="334"/>
      <point x="553" y="424"/>
      <point x="657" y="424" type="curve" smooth="yes"/>
      <point x="763" y="424"/>
      <point x="805" y="334"/>
    </contour>
    <contour>
      <point x="265" y="492" type="curve" smooth="yes"/>
      <point x="265" y="575"/>
      <point x="246" y="633"/>
      <point x="198" y="633" type="curve" smooth="yes"/>
      <point x="150" y="633"/>
      <point x="133" y="577"/>
      <point x="133" y="494" type="curve" smooth="yes"/>
      <point x="133" y="411"/>
      <point x="151" y="352"/>
      <point x="199" y="352" type="curve" smooth="yes"/>
      <point x="246" y="352"/>
      <point x="265" y="416"/>
    </contour>
    <contour>
      <point x="1078" y="205" type="curve" smooth="yes"/>
      <point x="1078" y="288"/>
      <point x="1059" y="346"/>
      <point x="1011" y="346" type="curve" smooth="yes"/>
      <point x="963" y="346"/>
      <point x="946" y="290"/>
      <point x="946" y="207" type="curve" smooth="yes"/>
      <point x="946" y="124"/>
      <point x="964" y="65"/>
      <point x="1012" y="65" type="curve" smooth="yes"/>
      <point x="1059" y="65"/>
      <point x="1078" y="129"/>
    </contour>
    <contour>
      <point x="723" y="205" type="curve" smooth="yes"/>
      <point x="723" y="288"/>
      <point x="704" y="346"/>
      <point x="656" y="346" type="curve" smooth="yes"/>
      <point x="608" y="346"/>
      <point x="591" y="290"/>
      <point x="591" y="207" type="curve" smooth="yes"/>
      <point x="591" y="124"/>
      <point x="609" y="65"/>
      <point x="657" y="65" type="curve" smooth="yes"/>
      <point x="704" y="65"/>
      <point x="723" y="129"/>
    </contour>
  </outline>
</glyph>
<glyph name="guilsinglleft" format="1">
  <advance width="298"/>
  <unicode hex="2039"/>
  <outline>
    <contour>
      <point x="253" y="0" type="line"/>
      <point x="155" y="0" type="line"/>
      <point x="20" y="262" type="line"/>
      <point x="155" y="525" type="line"/>
      <point x="253" y="525" type="line"/>
      <point x="123" y="263" type="line"/>
    </contour>
  </outline>
</glyph>
<glyph name="guilsinglright" format="1">
  <advance width="298"/>
  <unicode hex="203A"/>
  <outline>
    <contour>
      <point x="278" y="263" type="line"/>
      <point x="143" y="0" type="line"/>
      <point x="45" y="0" type="line"/>
      <point x="175" y="262" type="line"/>
      <point x="45" y="525" type="line"/>
      <point x="143" y="525" type="line"/>
    </contour>
  </outline>
</glyph>
<glyph name="fraction" format="1">
  <advance width="389"/>
  <unicode hex="2044"/>
  <outline>
    <contour>
      <point x="441" y="700" type="line"/>
      <point x="52" y="0" type="line"/>
      <point x="-52" y="0" type="line"/>
      <point x="337" y="700" type="line"/>
    </contour>
  </outline>
</glyph>
<glyph name="Euro" format="1">
  <advance width="465"/>
  <unicode hex="20AC"/>
  <outline>
    <contour>
      <point x="139" y="390" type="line"/>
      <point x="138" y="377"/>
      <point x="138" y="364"/>
      <point x="138" y="351" type="curve" smooth="yes"/>
      <point x="138" y="338"/>
      <point x="138" y="326"/>
      <point x="139" y="314" type="curve"/>
      <point x="315" y="314" type="line"/>
      <point x="315" y="237" type="line"/>
      <point x="147" y="237" type="line"/>
      <point x="162" y="148"/>
      <point x="195" y="83"/>
      <point x="251" y="83" type="curve" smooth="yes"/>
      <point x="303" y="83"/>
      <point x="327" y="121"/>
      <point x="344" y="195" type="curve"/>
      <point x="435" y="166" type="line"/>
      <point x="408" y="56"/>
      <point x="359" y="-11"/>
      <point x="244" y="-11" type="curve" smooth="yes"/>
      <point x="98" y="-11"/>
      <point x="43" y="150"/>
      <point x="43" y="349" type="curve" smooth="yes"/>
      <point x="43" y="552"/>
      <point x="106" y="711"/>
      <point x="247" y="711" type="curve" smooth="yes"/>
      <point x="365" y="711"/>
      <point x="413" y="640"/>
      <point x="434" y="540" type="curve"/>
      <point x="340" y="514" type="line"/>
      <point x="320" y="587"/>
      <point x="300" y="617"/>
      <point x="246" y="617" type="curve" smooth="yes"/>
      <point x="190" y="617"/>
      <point x="160" y="549"/>
      <point x="147" y="467" type="curve"/>
      <point x="315" y="467" type="line"/>
      <point x="315" y="390" type="line"/>
    </contour>
  </outline>
</glyph>
<glyph name="uni2117" format="1">
  <advance width="646"/>
  <unicode hex="2117"/>
  <outline>
    <contour>
      <point x="601" y="350" type="curve" smooth="yes"/>
      <point x="601" y="131"/>
      <point x="484" y="-11"/>
      <point x="323" y="-11" type="curve" smooth="yes"/>
      <point x="162" y="-11"/>
      <point x="45" y="131"/>
      <point x="45" y="350" type="curve" smooth="yes"/>
      <point x="45" y="569"/>
      <point x="162" y="711"/>
      <point x="323" y="711" type="curve" smooth="yes"/>
      <point x="484" y="711"/>
      <point x="601" y="569"/>
    </contour>
    <contour>
      <point x="543" y="349" type="curve" smooth="yes"/>
      <point x="543" y="533"/>
      <point x="458" y="656"/>
      <point x="323" y="656" type="curve" smooth="yes"/>
      <point x="188" y="656"/>
      <point x="103" y="534"/>
      <point x="103" y="351" type="curve" smooth="yes"/>
      <point x="103" y="167"/>
      <point x="190" y="44"/>
      <point x="325" y="44" type="curve" smooth="yes"/>
      <point x="460" y="44"/>
      <point x="543" y="166"/>
    </contour>
    <contour>
      <point x="452" y="432" type="curve" smooth="yes"/>
      <point x="452" y="352"/>
      <point x="397" y="312"/>
      <point x="337" y="312" type="curve" smooth="yes"/>
      <point x="287" y="312" type="line"/>
      <point x="287" y="153" type="line"/>
      <point x="229" y="153" type="line"/>
      <point x="229" y="547" type="line"/>
      <point x="340" y="547" type="line" smooth="yes"/>
      <point x="393" y="547"/>
      <point x="452" y="514"/>
    </contour>
    <contour>
      <point x="392" y="430" type="curve" smooth="yes"/>
      <point x="392" y="474"/>
      <point x="365" y="491"/>
      <point x="337" y="491" type="curve" smooth="yes"/>
      <point x="287" y="491" type="line"/>
      <point x="287" y="368" type="line"/>
      <point x="337" y="368" type="line" smooth="yes"/>
      <point x="368" y="368"/>
      <point x="392" y="389"/>
    </contour>
  </outline>
</glyph>
<glyph name="trademark" format="1">
  <advance width="575"/>
  <unicode hex="2122"/>
  <outline>
    <contour>
      <point x="220" y="643" type="line"/>
      <point x="149" y="643" type="line"/>
      <point x="149" y="307" type="line"/>
      <point x="92" y="307" type="line"/>
      <point x="92" y="643" type="line"/>
      <point x="19" y="643" type="line"/>
      <point x="19" y="700" type="line"/>
      <point x="220" y="700" type="line"/>
    </contour>
    <contour>
      <point x="539" y="307" type="line"/>
      <point x="483" y="307" type="line"/>
      <point x="483" y="466" type="line" smooth="yes"/>
      <point x="483" y="488"/>
      <point x="484" y="533"/>
      <point x="484" y="555" type="curve"/>
      <point x="478" y="533"/>
      <point x="464" y="487"/>
      <point x="456" y="462" type="curve" smooth="yes"/>
      <point x="405" y="298" type="line"/>
      <point x="354" y="462" type="line" smooth="yes"/>
      <point x="347" y="485"/>
      <point x="334" y="528"/>
      <point x="327" y="551" type="curve"/>
      <point x="327" y="528"/>
      <point x="328" y="487"/>
      <point x="328" y="466" type="curve" smooth="yes"/>
      <point x="328" y="307" type="line"/>
      <point x="273" y="307" type="line"/>
      <point x="273" y="700" type="line"/>
      <point x="332" y="700" type="line"/>
      <point x="383" y="536" type="line" smooth="yes"/>
      <point x="390" y="515"/>
      <point x="403" y="478"/>
      <point x="407" y="454" type="curve"/>
      <point x="411" y="479"/>
      <point x="422" y="517"/>
      <point x="429" y="538" type="curve" smooth="yes"/>
      <point x="480" y="700" type="line"/>
      <point x="539" y="700" type="line"/>
    </contour>
  </outline>
</glyph>
<glyph name="arrowright" format="1">
  <advance width="550"/>
  <unicode hex="2192"/>
  <outline>
    <contour>
      <point x="530" y="346" type="line"/>
      <point x="351" y="220" type="line"/>
      <point x="343" y="216"/>
      <point x="336" y="216"/>
      <point x="332" y="218" type="curve"/>
      <point x="324" y="224"/>
      <point x="320" y="230"/>
      <point x="324" y="241" type="curve" smooth="yes"/>
      <point x="342" y="298" type="line"/>
      <point x="45" y="298" type="line"/>
      <point x="45" y="394" type="line"/>
      <point x="342" y="394" type="line"/>
      <point x="324" y="452" type="line" smooth="yes"/>
      <point x="321" y="462"/>
      <point x="324" y="468"/>
      <point x="332" y="474" type="curve"/>
      <point x="336" y="476"/>
      <point x="343" y="476"/>
      <point x="351" y="471" type="curve" smooth="yes"/>
    </contour>
  </outline>
</glyph>
<glyph name="arrowdown" format="1">
  <advance width="356"/>
  <unicode hex="2193"/>
  <outline>
    <contour>
      <point x="306" y="185" type="curve"/>
      <point x="308" y="181"/>
      <point x="308" y="174"/>
      <point x="303" y="166" type="curve" smooth="yes"/>
      <point x="178" y="-13" type="line"/>
      <point x="52" y="166" type="line"/>
      <point x="48" y="174"/>
      <point x="48" y="181"/>
      <point x="50" y="185" type="curve"/>
      <point x="56" y="193"/>
      <point x="62" y="197"/>
      <point x="73" y="193" type="curve" smooth="yes"/>
      <point x="130" y="175" type="line"/>
      <point x="130" y="700" type="line"/>
      <point x="226" y="700" type="line"/>
      <point x="226" y="175" type="line"/>
      <point x="284" y="193" type="line" smooth="yes"/>
      <point x="294" y="196"/>
      <point x="300" y="193"/>
    </contour>
  </outline>
</glyph>
<glyph name="radical" format="1">
  <advance width="490"/>
  <unicode hex="221A"/>
  <outline>
    <contour>
      <point x="475" y="700" type="line"/>
      <point x="244" y="0" type="line"/>
      <point x="145" y="0" type="line"/>
      <point x="22" y="340" type="line"/>
      <point x="129" y="340" type="line"/>
      <point x="158" y="242" type="line" smooth="yes"/>
      <point x="170" y="202"/>
      <point x="187" y="137"/>
      <point x="194" y="106" type="curve"/>
      <point x="202" y="137"/>
      <point x="222" y="206"/>
      <point x="234" y="246" type="curve" smooth="yes"/>
      <point x="372" y="700" type="line"/>
    </contour>
  </outline>
</glyph>
<glyph name="apple" format="1">
  <advance width="750"/>
  <unicode hex="F8FF"/>
  <outline>
    <contour>
      <point x="730" y="346" type="line"/>
      <point x="551" y="221" type="line"/>
      <point x="544" y="217"/>
      <point x="539" y="217"/>
      <point x="535" y="219" type="curve"/>
      <point x="528" y="225"/>
      <point x="526" y="229"/>
      <point x="529" y="239" type="curve" smooth="yes"/>
      <point x="548" y="300" type="line"/>
      <point x="421" y="300" type="line"/>
      <point x="421" y="163" type="line"/>
      <point x="484" y="183" type="line" smooth="yes"/>
      <point x="492" y="186"/>
      <point x="496" y="184"/>
      <point x="502" y="177" type="curve"/>
      <point x="504" y="173"/>
      <point x="504" y="167"/>
      <point x="499" y="160" type="curve" smooth="yes"/>
      <point x="375" y="-18" type="line"/>
      <point x="249" y="160" type="line"/>
      <point x="245" y="168"/>
      <point x="245" y="173"/>
      <point x="247" y="177" type="curve"/>
      <point x="253" y="184"/>
      <point x="258" y="187"/>
      <point x="267" y="183" type="curve"/>
      <point x="329" y="163" type="line"/>
      <point x="329" y="300" type="line"/>
      <point x="202" y="300" type="line"/>
      <point x="221" y="239" type="line" smooth="yes"/>
      <point x="224" y="229"/>
      <point x="221" y="225"/>
      <point x="214" y="219" type="curve"/>
      <point x="210" y="217"/>
      <point x="205" y="217"/>
      <point x="197" y="221" type="curve"/>
      <point x="20" y="346" type="line"/>
      <point x="199" y="471" type="line" smooth="yes"/>
      <point x="205" y="475"/>
      <point x="210" y="476"/>
      <point x="214" y="474" type="curve"/>
      <point x="221" y="468"/>
      <point x="223" y="463"/>
      <point x="221" y="455" type="curve" smooth="yes"/>
      <point x="202" y="392" type="line"/>
      <point x="329" y="392" type="line"/>
      <point x="329" y="526" type="line"/>
      <point x="267" y="507" type="line"/>
      <point x="258" y="503"/>
      <point x="253" y="507"/>
      <point x="247" y="514" type="curve"/>
      <point x="245" y="518"/>
      <point x="245" y="523"/>
      <point x="249" y="531" type="curve"/>
      <point x="375" y="708" type="line"/>
      <point x="499" y="530" type="line" smooth="yes"/>
      <point x="504" y="523"/>
      <point x="504" y="518"/>
      <point x="502" y="514" type="curve"/>
      <point x="496" y="507"/>
      <point x="492" y="505"/>
      <point x="484" y="507" type="curve" smooth="yes"/>
      <point x="421" y="526" type="line"/>
      <point x="421" y="392" type="line"/>
      <point x="548" y="392" type="line"/>
      <point x="529" y="455" type="line" smooth="yes"/>
      <point x="527" y="463"/>
      <point x="528" y="468"/>
      <point x="535" y="474" type="curve"/>
      <point x="539" y="476"/>
      <point x="545" y="475"/>
      <point x="551" y="471" type="curve" smooth="yes"/>
    </contour>
  </outline>
</glyph>
<glyph name="fi" format="1">
  <advance width="505"/>
  <unicode hex="FB01"/>
  <outline>
    <contour>
      <point x="454" y="666" type="curve" smooth="yes"/>
      <point x="454" y="634"/>
      <point x="427" y="607"/>
      <point x="395" y="607" type="curve" smooth="yes"/>
      <point x="362" y="607"/>
      <point x="335" y="634"/>
      <point x="335" y="666" type="curve" smooth="yes"/>
      <point x="335" y="699"/>
      <point x="362" y="726"/>
      <point x="395" y="726" type="curve" smooth="yes"/>
      <point x="427" y="726"/>
      <point x="454" y="699"/>
    </contour>
    <contour>
      <point x="278" y="636" type="line"/>
      <point x="266" y="640"/>
      <point x="252" y="642"/>
      <point x="238" y="642" type="curve" smooth="yes"/>
      <point x="191" y="642"/>
      <point x="177" y="625"/>
      <point x="177" y="586" type="curve" smooth="yes"/>
      <point x="177" y="525" type="line"/>
      <point x="263" y="525" type="line"/>
      <point x="263" y="435" type="line"/>
      <point x="177" y="435" type="line"/>
      <point x="177" y="0" type="line"/>
      <point x="81" y="0" type="line"/>
      <point x="81" y="435" type="line"/>
      <point x="28" y="435" type="line"/>
      <point x="28" y="525" type="line"/>
      <point x="81" y="525" type="line"/>
      <point x="81" y="599" type="line" smooth="yes"/>
      <point x="81" y="685"/>
      <point x="131" y="726"/>
      <point x="199" y="726" type="curve" smooth="yes"/>
      <point x="232" y="726"/>
      <point x="256" y="723"/>
      <point x="278" y="716" type="curve"/>
    </contour>
    <contour>
      <point x="443" y="0" type="line"/>
      <point x="347" y="0" type="line"/>
      <point x="347" y="525" type="line"/>
      <point x="443" y="525" type="line"/>
    </contour>
  </outline>
</glyph>
<glyph name="bullet" format="1">
  <advance width="400"/>
  <outline>
    <contour>
      <point x="350" y="366" type="curve" smooth="yes"/>
      <point x="350" y="282"/>
      <point x="284" y="216"/>
      <point x="200" y="216" type="curve" smooth="yes"/>
      <point x="116" y="216"/>
      <point x="50" y="282"/>
      <point x="50" y="366" type="curve" smooth="yes"/>
      <point x="50" y="450"/>
      <point x="116" y="518"/>
      <point x="200" y="518" type="curve" smooth="yes"/>
      <point x="284" y="518"/>
      <point x="350" y="450"/>
    </contour>
  </outline>
</glyph>
